<?xml version="1.0" encoding="utf-8"?>
<!-- Generator: Adobe Illustrator 25.3.0, SVG Export Plug-In . SVG Version: 6.00 Build 0)  -->
<svg version="1.1" xmlns="http://www.w3.org/2000/svg" xmlns:xlink="http://www.w3.org/1999/xlink" x="0px" y="0px"
	 viewBox="0 0 864 486" enable-background="new 0 0 864 486" xml:space="preserve">
<g id="Layer_0_xA0_Image_1_">
	
		<image overflow="visible" width="2880" height="1620" id="Layer_0_xA0_Image" xlink:href="7F21BD26.png"  transform="matrix(0.3 0 0 0.3 0 0)">
	</image>
</g>
<g id="pantalla_xA0_Image_1_">
	
		<image overflow="visible" opacity="0" width="677" height="353" id="pantalla_xA0_Image" xlink:href="7F21BD2A.png"  transform="matrix(0.3 0 0 0.3 329.7 112.5)">
	</image>
</g>
<g id="sala_de_capacitacion_xA0_Image_1_">
	
		<image overflow="visible" opacity="0" width="437" height="85" id="sala_de_capacitacion_xA0_Image" xlink:href="7F21BD2D.png"  transform="matrix(0.3 0 0 0.3 181.5 132.3)">
	</image>
</g>
<g id="red_de_contactos_xA0_Image_1_">
	
		<image overflow="visible" opacity="0" width="462" height="91" id="red_de_contactos_xA0_Image" xlink:href="7F21BD2E.png"  transform="matrix(0.3 0 0 0.3 169.5 201.9)">
	</image>
</g>
<g id="señal_en_vivo_xA0_Image_1_">
	
		<image overflow="visible" opacity="0" width="462" height="91" id="señal_en_vivo_xA0_Image" xlink:href="7F21BD2C.png"  transform="matrix(0.3 0 0 0.3 558 201.9)">
	</image>
</g>
<g id="stands_xA0_Image_1_">
	
		<image overflow="visible" opacity="0" width="433" height="91" id="stands_xA0_Image" xlink:href="7F21BD2B.png"  transform="matrix(0.3 0 0 0.3 548.4 132.3)">
	</image>
</g>
<g id="informacion_xA0_Image_1_">
	
		<image overflow="visible" opacity="0" width="433" height="158" id="informacion_xA0_Image" xlink:href="7F21BD25.png"  transform="matrix(0.3 0 0 0.3 355.2 413.4)">
	</image>
</g>
<g id="gran_feria_1_xA0_Image_1_">
	
		<image overflow="visible" opacity="0" width="258" height="342" id="gran_feria_1_xA0_Image" xlink:href="7F21BD27.png"  transform="matrix(0.3 0 0 0.3 64.2 52.8)">
	</image>
</g>
<g id="gran_feria_2_xA0_Image_1_">
	
		<image overflow="visible" opacity="0" width="258" height="342" id="gran_feria_2_xA0_Image" xlink:href="7F21BD24.png"  transform="matrix(0.3 0 0 0.3 726 52.8)">
	</image>
</g>
<g id="gran_feria_3_xA0_Image_1_">
	
		<image overflow="visible" opacity="0" width="178" height="257" id="gran_feria_3_xA0_Image" xlink:href="5FE056D9.png"  transform="matrix(0.3 0 0 0.3 188.4 325.5)">
	</image>
</g>
<g id="gran_feria_4_xA0_Image_1_">
	
		<image overflow="visible" opacity="0" width="178" height="257" id="gran_feria_4_xA0_Image" xlink:href="5FE056DF.png"  transform="matrix(0.3 0 0 0.3 605.1 325.5)">
	</image>
</g>
<g id="_x33_m_xA0_Image_1_">
	
		<image overflow="visible" opacity="0" width="176" height="101" id="_x33_m_xA0_Image" xlink:href="5FE056D8.png"  transform="matrix(0.3 0 0 0.3 181.2 92.1)">
	</image>
</g>
<g id="junkers_xA0_Image_1_">
	
		<image overflow="visible" opacity="0" width="176" height="101" id="junkers_xA0_Image" xlink:href="5FE056DB.png"  transform="matrix(0.3 0 0 0.3 252.3 92.1)">
	</image>
</g>
<g id="ubermann_xA0_Image_1_">
	
		<image overflow="visible" opacity="0" width="176" height="101" id="ubermann_xA0_Image" xlink:href="5FE056C7.png"  transform="matrix(0.3 0 0 0.3 548.4 92.1)">
	</image>
</g>
<g id="sodimac_xA0_Image_1_">
	
		<image overflow="visible" opacity="0" width="176" height="101" id="sodimac_xA0_Image" xlink:href="5FE056D7.png"  transform="matrix(0.3 0 0 0.3 619.8 92.1)">
	</image>
</g>
</svg>
