<?xml version="1.0"?>
<svg xmlns="http://www.w3.org/2000/svg" xmlns:xlink="http://www.w3.org/1999/xlink" xmlns:svgjs="http://svgjs.com/svgjs" version="1.1" width="512" height="512" x="0" y="0" viewBox="0 0 64 64" style="enable-background:new 0 0 512 512" xml:space="preserve" class=""><g><path xmlns="http://www.w3.org/2000/svg" d="m59 11.5h-6.03424l-4.06732-8.94824a3.508 3.508 0 0 0 -3.18653-2.05176h-13.42382a3.508 3.508 0 0 0 -3.18653 2.05176l-4.06732 8.94824h-4.53424v-2.5a3.50424 3.50424 0 0 0 -3.5-3.5h-6a3.50424 3.50424 0 0 0 -3.5 3.5v2.5h-2.5a4.50491 4.50491 0 0 0 -4.5 4.5v43a4.50491 4.50491 0 0 0 4.5 4.5h54a4.50491 4.50491 0 0 0 4.5-4.5v-43a4.50491 4.50491 0 0 0 -4.5-4.5zm-27.168-7.706a.5024.5024 0 0 1 .45606-.294h13.42385a.5024.5024 0 0 1 .45606.294l3.50293 7.706h-21.3418zm-21.332 5.206a.501.501 0 0 1 .5-.5h6a.501.501 0 0 1 .5.5v2.5h-7zm50 50a1.50164 1.50164 0 0 1 -1.5 1.5h-54a1.50164 1.50164 0 0 1 -1.5-1.5v-34.5h57zm0-37.5h-57v-5.5a1.50164 1.50164 0 0 1 1.5-1.5h54a1.50164 1.50164 0 0 1 1.5 1.5z" fill="#3d3d3b" data-original="#000000" class=""/><path xmlns="http://www.w3.org/2000/svg" d="m49 57.5h6a1.5 1.5 0 0 0 0-3h-6a1.5 1.5 0 0 0 0 3z" fill="#3d3d3b" data-original="#000000" class=""/><g xmlns="http://www.w3.org/2000/svg" fill="#3e3ef4"><circle cx="32" cy="42.5" r="7.75" fill="#f6dc00" data-original="#3e3ef4" class=""/><path d="m32 27.5a15 15 0 1 0 15 15 15.01683 15.01683 0 0 0 -15-15zm0 25.25a10.25 10.25 0 1 1 10.25-10.25 10.261 10.261 0 0 1 -10.25 10.25z" fill="#f6dc00" data-original="#3e3ef4" class=""/></g></g></svg>
