<svg width="600" height="64" viewBox="0 0 600 64" fill="none" xmlns="http://www.w3.org/2000/svg">
<rect width="600" height="63.8599" fill="white"/>
<path d="M292.133 63.8599H276.498L311.042 0H326.628L292.133 63.8599Z" fill="#FFDD00"/>
<path d="M322.72 63.8599H307.085L341.58 0H357.215L322.72 63.8599Z" fill="#FFDD00"/>
<path d="M353.306 63.8599H337.671L372.166 0H387.801L353.306 63.8599Z" fill="#FFDD00"/>
<path d="M383.843 63.8599H368.257L402.752 0H418.338L383.843 63.8599Z" fill="#FFDD00"/>
<path d="M414.82 63.8599H399.185L433.729 0H449.315L414.82 63.8599Z" fill="#FFDD00"/>
<path d="M445.407 63.8599H429.771L464.267 0H479.902L445.407 63.8599Z" fill="#FFDD00"/>
<path d="M169.837 63.8599H154.201L188.745 0H204.332L169.837 63.8599Z" fill="#FFDD00"/>
<path d="M200.423 63.8599H184.788L219.283 0H234.918L200.423 63.8599Z" fill="#FFDD00"/>
<path d="M231.009 63.8599H215.374L249.869 0H265.504L231.009 63.8599Z" fill="#FFDD00"/>
<path d="M261.547 63.8599H245.96L280.456 0H296.091L261.547 63.8599Z" fill="#FFDD00"/>
<path d="M46.1726 63.8599H30.5863L65.0814 0H80.7166L46.1726 63.8599Z" fill="#FFDD00"/>
<path d="M76.7589 63.8599H61.1238L95.6677 0H111.254L76.7589 63.8599Z" fill="#FFDD00"/>
<path d="M107.345 63.8599H91.7101L126.254 0H141.84L107.345 63.8599Z" fill="#FFDD00"/>
<path d="M137.931 63.8599H122.296L156.791 0H172.426L137.931 63.8599Z" fill="#FFDD00"/>
<path d="M15.6352 63.8599H0L34.4951 0H50.1303L15.6352 63.8599Z" fill="#FFDD00"/>
<path d="M473.795 63.8599H458.16L492.655 0H508.29L473.795 63.8599Z" fill="#FFDD00"/>
<path d="M504.332 63.8599H488.745L523.24 0H538.876L504.332 63.8599Z" fill="#FFDD00"/>
<path d="M534.918 63.8599H519.332L553.827 0H569.413L534.918 63.8599Z" fill="#FFDD00"/>
<path d="M565.505 63.8599H549.87L584.365 0H600L565.505 63.8599Z" fill="#FFDD00"/>
</svg>
