<?xml version="1.0"?>
<svg xmlns="http://www.w3.org/2000/svg" xmlns:xlink="http://www.w3.org/1999/xlink" xmlns:svgjs="http://svgjs.com/svgjs" version="1.1" width="512" height="512" x="0" y="0" viewBox="0 0 64 64" style="enable-background:new 0 0 512 512" xml:space="preserve" class=""><g><g xmlns="http://www.w3.org/2000/svg" id="pdf"><g><g><path clip-rule="evenodd" d="m13.6357 55.7551 33.4881-43.0294v-10.7257h-39.7363v53.7551z" fill="#ffffff" fill-rule="evenodd" data-original="#d4d4d4" class=""/></g><g><path clip-rule="evenodd" d="m13.6357 8.2484v47.5067 6.2449h39.7363c0-13.2058 0-18.334 0-43.2726h-10.9172v-10.479z" fill="#ffffff" fill-rule="evenodd" data-original="#eeeeee" class=""/></g><g><path clip-rule="evenodd" d="m42.4548 8.2484v10.479h10.9172v-.0034l-6.2482-5.9983-4.6656-4.4773z" fill="#ffffff" fill-rule="evenodd" data-original="#74787a" class=""/></g><g><path clip-rule="evenodd" d="m44.4724 18.7274c1.5963 6.0531 2.1889 12.4316 1.8943 18.6834h7.0052v-18.6834z" fill="#ffffff" fill-rule="evenodd" data-original="#d4d4d4" class=""/></g><g><path clip-rule="evenodd" d="m53.372 54.8438h-10.4377c-.9557 2.583-2.0861 4.9809-3.3673 7.1562h13.805z" fill="#ffffff" fill-rule="evenodd" data-original="#d4d4d4" class=""/></g><g><path clip-rule="evenodd" d="m53.372 37.4108h-30.7374c-1.0653 0-1.9354.8701-1.9354 1.9355v13.5621c0 1.0654.8701 1.9355 1.9354 1.9355h30.7374 1.3017c1.0653 0 1.9389-.8701 1.9389-1.9355v-13.5621c0-1.0654-.8735-1.9355-1.9389-1.9355z" fill="#f6dc00" fill-rule="evenodd" data-original="#ff335c" class=""/></g><g><path clip-rule="evenodd" d="m53.372 37.4108h-13.1336c.2809 5.8681-.5515 11.9795-2.7267 17.4331h15.8603 1.3017c1.0653 0 1.9389-.8701 1.9389-1.9355v-13.5621c0-1.0654-.8735-1.9355-1.9389-1.9355z" fill="#f6dc00" fill-rule="evenodd" data-original="#eb1741" class=""/></g><g><path d="m20.915 25.1914h11.0332c.5527 0 1-.4478 1-1s-.4473-1-1-1h-11.0332c-.5527 0-1 .4478-1 1s.4473 1 1 1z" fill="#3d3d3b" data-original="#000000" class=""/><path d="m20.915 30.1895h26.4248c.5527 0 1-.4478 1-1s-.4473-1-1-1h-26.4248c-.5527 0-1 .4478-1 1s.4473 1 1 1z" fill="#3d3d3b" data-original="#000000" class=""/><path d="m54.6738 36.4106h-.3018v-17.6865c0-.2725-.1113-.5327-.3076-.7217l-5.9404-5.7018v-10.3006c0-.5522-.4473-1-1-1h-39.7363c-.5527 0-1 .4478-1 1v53.7549c0 .5522.4473 1 1 1h5.248v5.2451c0 .5522.4473 1 1 1h39.7363c.5527 0 1-.4478 1-1v-6.1563h.3018c1.6201 0 2.9385-1.3169 2.9385-2.9355v-13.562c0-1.6187-1.3184-2.9356-2.9385-2.9356zm-11.2187-25.8189 7.4346 7.1358h-7.4346zm-35.0674 44.1632v-51.7549h37.7363v7.381l-2.9736-2.8542c-.1865-.1787-.4346-.2783-.6924-.2783h-28.8223c-.5527 0-1 .4478-1 1v46.5063h-4.248zm43.9844 6.2451h-37.7364v-51.7515h26.8193v9.479c0 .5522.4473 1 1 1h9.917v16.6831h-29.7372c-1.6191 0-2.9355 1.3169-2.9355 2.9355v13.562c0 1.6187 1.3164 2.9355 2.9355 2.9355h29.7373zm3.2402-8.0918c0 .5156-.4209.9355-.9385.9355h-32.039c-.5156 0-.9355-.4199-.9355-.9355v-13.562c0-.5156.4199-.9355.9355-.9355h32.0391c.5176 0 .9385.4199.9385.9355v13.562z" fill="#3d3d3b" data-original="#000000" class=""/><path d="m38.0156 40.8506h-1.9834c-.5527 0-1 .4478-1 1v8.5537c0 .5522.4473 1 1 1h1.9834c2.9102 0 5.2783-2.3682 5.2783-5.2788 0-2.9087-2.3681-5.2749-5.2783-5.2749zm0 8.5537h-.9834v-6.5537h.9834c1.8076 0 3.2783 1.4692 3.2783 3.2749 0 1.8081-1.4707 3.2788-3.2783 3.2788z" fill="#3d3d3b" data-original="#000000" class=""/><path d="m30.0234 40.8506h-3.0693c-.5527 0-1 .4478-1 1v5.1211.0034 3.4189c0 .5522.4473 1 1 1s1-.4478 1-1v-2.4189h2.0693c1.9648 0 3.5625-1.5981 3.5625-3.5625 0-1.9639-1.5976-3.562-3.5625-3.562zm0 5.1245h-2.0693v-3.1245h2.0693c.8613 0 1.5625.7007 1.5625 1.562s-.7011 1.5625-1.5625 1.5625z" fill="#3d3d3b" data-original="#000000" class=""/><path d="m50.3574 42.8506c.5527 0 1-.4478 1-1s-.4473-1-1-1h-4.4531c-.5527 0-1 .4478-1 1v8.5469c0 .5522.4473 1 1 1s1-.4478 1-1v-3.4912h3.4531c.5527 0 1-.4478 1-1s-.4473-1-1-1h-3.4531v-2.0557z" fill="#3d3d3b" data-original="#000000" class=""/></g></g></g></g></svg>
