<svg width="120" height="167" viewBox="0 0 120 167" fill="none" xmlns="http://www.w3.org/2000/svg">
<g clip-path="url(#clip0_43:1217)">
<path d="M6.56786 1.54779L1.54773 6.56792V164.575H113.432L118.452 159.555V1.54779H6.56786Z" fill="#1F1E1D"/>
<path d="M6.56786 1.54779L1.54773 6.56792V164.575H113.432L118.452 159.555V1.54779H6.56786Z" stroke="#1F1E1D" stroke-width="3.79" stroke-miterlimit="10"/>
<path d="M6.56786 1.54779L1.54773 6.56792V164.575H113.432L118.452 159.555V1.54779H6.56786Z" fill="#FFDD00"/>
<path d="M33.4948 27.2872V35.9844C33.4948 38.6364 32.4413 41.1798 30.5661 43.055C28.6909 44.9303 26.1475 45.9838 23.4955 45.9838C20.8435 45.9838 18.3002 44.9303 16.4249 43.055C14.5497 41.1798 13.4962 38.6364 13.4962 35.9844V17.509C13.4893 15.3069 14.2108 13.1644 15.5482 11.4149C16.8856 9.66549 18.764 8.40735 20.8908 7.83641C23.0176 7.26546 25.2735 7.41375 27.3072 8.25819C29.341 9.10263 31.0385 10.5958 32.1354 12.5053C32.5797 13.3035 32.6924 14.2445 32.4491 15.1251C32.2057 16.0057 31.6259 16.7553 30.8348 17.2122C30.0436 17.669 29.1045 17.7965 28.2202 17.5671C27.3359 17.3376 26.5772 16.7697 26.108 15.9858C25.7809 15.3981 25.2647 14.9383 24.6432 14.6811C24.0217 14.4238 23.3315 14.3844 22.6848 14.569C22.0496 14.757 21.4917 15.1443 21.0935 15.6738C20.6953 16.2032 20.478 16.8466 20.4736 17.509V35.9844C20.4522 36.3972 20.515 36.8101 20.6582 37.1979C20.8014 37.5856 21.0221 37.9402 21.3067 38.24C21.5913 38.5397 21.934 38.7784 22.3138 38.9416C22.6936 39.1047 23.1026 39.1888 23.516 39.1888C23.9294 39.1888 24.3384 39.1047 24.7182 38.9416C25.098 38.7784 25.4407 38.5397 25.7253 38.24C26.0099 37.9402 26.2306 37.5856 26.3738 37.1979C26.517 36.8101 26.5798 36.3972 26.5584 35.9844V30.7678H24.5683C24.0976 30.7906 23.6272 30.7176 23.1855 30.5532C22.7438 30.3888 22.3401 30.1365 21.9989 29.8114C21.6576 29.4863 21.386 29.0954 21.2004 28.6622C21.0148 28.229 20.919 27.7626 20.919 27.2913C20.919 26.8201 21.0148 26.3537 21.2004 25.9205C21.386 25.4873 21.6576 25.0963 21.9989 24.7713C22.3401 24.4462 22.7438 24.1938 23.1855 24.0294C23.6272 23.865 24.0976 23.7921 24.5683 23.8149H29.9979C30.9183 23.8192 31.7999 24.1862 32.4514 24.8362C33.103 25.4862 33.472 26.3669 33.4785 27.2872" fill="#020203"/>
<path d="M56.8184 41.3076C57.1334 42.1733 57.0931 43.1284 56.7065 43.9646C56.3199 44.8008 55.6182 45.4501 54.7546 45.7708C54.3728 45.9157 53.9673 45.9879 53.559 45.9838C52.8447 45.984 52.1476 45.7651 51.5618 45.3565C50.9759 44.9479 50.5297 44.3693 50.2832 43.6989L45.4596 30.7678H43.9937V42.5032C43.9937 43.4263 43.627 44.3116 42.9743 44.9643C42.3215 45.6171 41.4363 45.9838 40.5132 45.9838C39.5901 45.9838 38.7048 45.6171 38.0521 44.9643C37.3994 44.3116 37.0327 43.4263 37.0327 42.5032V11.2032C37.0412 10.2827 37.4106 9.4024 38.0615 8.75152C38.7124 8.10064 39.5927 7.7312 40.5132 7.72266H47.0647C49.7085 7.74202 52.2381 8.8025 54.1052 10.6743C55.9724 12.546 57.0266 15.0782 57.0395 17.722V20.7684C57.04 22.4679 56.6052 24.1392 55.7766 25.623C54.948 27.1067 53.7532 28.3535 52.306 29.2445L56.8184 41.3076ZM43.9937 14.6837V23.8149H47.032C47.4323 23.816 47.829 23.7379 48.1991 23.5852C48.5692 23.4325 48.9055 23.2081 49.1886 22.925C49.4717 22.6419 49.696 22.3057 49.8488 21.9356C50.0015 21.5655 50.0795 21.1688 50.0785 20.7684V17.722C50.0785 17.3223 49.9996 16.9265 49.8464 16.5574C49.6932 16.1882 49.4687 15.8529 49.1857 15.5707C48.9027 15.2884 48.5668 15.0648 48.1972 14.9126C47.8276 14.7604 47.4317 14.6826 47.032 14.6837H43.9937Z" fill="#020203"/>
<path d="M83.1802 41.5778C83.4125 42.4733 83.2855 43.4242 82.8265 44.2274C82.3675 45.0307 81.6128 45.6227 80.7233 45.8773C80.4181 45.9369 80.1087 45.9725 79.7979 45.9837C79.0349 45.9734 78.2957 45.7166 77.6906 45.2517C77.0855 44.7868 76.6469 44.1387 76.4403 43.4041L75.0808 38.3512H67.1534L65.7858 43.4041C65.6775 43.861 65.4783 44.2915 65.2001 44.6698C64.9218 45.0481 64.5702 45.3665 64.1662 45.606C63.7622 45.8454 63.3141 46.0011 62.8487 46.0636C62.3833 46.1261 61.91 46.0943 61.4571 45.9699C61.0043 45.8455 60.5811 45.6312 60.2129 45.3398C59.8446 45.0483 59.5389 44.6857 59.3138 44.2735C59.0888 43.8613 58.9491 43.408 58.9031 42.9406C58.857 42.4733 58.9056 42.0014 59.0459 41.5532L67.7431 10.0648C67.9473 9.32787 68.3874 8.67815 68.996 8.21519C69.6047 7.75223 70.3483 7.50156 71.113 7.50156C71.8778 7.50156 72.6214 7.75223 73.2301 8.21519C73.8387 8.67815 74.2788 9.32787 74.483 10.0648L83.1802 41.5778ZM73.1235 31.4229L71.1171 24.0524L69.1025 31.4229H73.1235Z" fill="#020203"/>
<path d="M107.282 10.982V42.5032C107.282 43.2848 107.016 44.0432 106.528 44.6535C106.04 45.2639 105.358 45.6897 104.596 45.8609C104.352 45.9482 104.092 45.9844 103.834 45.9674C103.18 45.9614 102.539 45.7757 101.983 45.4305C101.427 45.0853 100.977 44.594 100.681 44.0101L92.0985 25.6575V42.5032C92.0985 43.4263 91.7318 44.3116 91.0791 44.9643C90.4263 45.617 89.5411 45.9837 88.618 45.9837C87.6949 45.9837 86.8096 45.617 86.1569 44.9643C85.5041 44.3116 85.1375 43.4263 85.1375 42.5032V10.982C85.1444 10.1952 85.4164 9.43374 85.9097 8.82069C86.4029 8.20764 87.0885 7.77886 87.8556 7.60366C88.6227 7.42846 89.4264 7.51709 90.1369 7.85521C90.8474 8.19334 91.4231 8.7612 91.7709 9.46699L100.362 27.8441V10.982C100.405 10.0892 100.79 9.2473 101.437 8.63076C102.085 8.01421 102.944 7.6703 103.838 7.6703C104.732 7.6703 105.592 8.01421 106.239 8.63076C106.886 9.2473 107.271 10.0892 107.314 10.982" fill="#020203"/>
<path d="M31.2918 52.8383C31.2811 53.7623 30.9076 54.6451 30.2519 55.2962C29.5962 55.9473 28.7108 56.3146 27.7868 56.3188H20.3344V64.3609H26.6894C27.1601 64.338 27.6306 64.411 28.0722 64.5754C28.5139 64.7398 28.9176 64.9922 29.2588 65.3172C29.6001 65.6423 29.8717 66.0333 30.0573 66.4664C30.243 66.8996 30.3387 67.366 30.3387 67.8373C30.3387 68.3086 30.243 68.7749 30.0573 69.2081C29.8717 69.6413 29.6001 70.0323 29.2588 70.3573C28.9176 70.6824 28.5139 70.9348 28.0722 71.0992C27.6306 71.2636 27.1601 71.3366 26.6894 71.3137H20.3344V83.9255C20.2908 84.8268 19.9021 85.6769 19.2487 86.2994C18.5954 86.9219 17.7276 87.2692 16.8252 87.2692C15.9228 87.2692 15.0549 86.9219 14.4016 86.2994C13.7483 85.6769 13.3596 84.8268 13.316 83.9255V52.8056C13.3067 51.9713 13.6031 51.1626 14.1493 50.5319C14.6955 49.9013 15.4536 49.4923 16.2806 49.3824C16.4593 49.3345 16.6445 49.3152 16.8293 49.325H27.7868C28.7108 49.3293 29.5962 49.6966 30.2519 50.3477C30.9076 50.9988 31.2811 51.8815 31.2918 52.8056" fill="#020203"/>
<path d="M39.7597 56.3188V64.3609H46.1229C46.5936 64.338 47.0641 64.411 47.5058 64.5754C47.9474 64.7398 48.3511 64.9922 48.6924 65.3172C49.0336 65.6423 49.3053 66.0333 49.4909 66.4664C49.6765 66.8996 49.7722 67.366 49.7722 67.8373C49.7722 68.3086 49.6765 68.7749 49.4909 69.2081C49.3053 69.6413 49.0336 70.0323 48.6924 70.3573C48.3511 70.6824 47.9474 70.9348 47.5058 71.0992C47.0641 71.2636 46.5936 71.3366 46.1229 71.3137H39.7597V80.445H47.2121C47.6828 80.4221 48.1533 80.4951 48.595 80.6595C49.0366 80.8239 49.4403 81.0762 49.7816 81.4013C50.1228 81.7264 50.3945 82.1173 50.5801 82.5505C50.7657 82.9837 50.8614 83.4501 50.8614 83.9214C50.8614 84.3926 50.7657 84.859 50.5801 85.2922C50.3945 85.7254 50.1228 86.1164 49.7816 86.4414C49.4403 86.7665 49.0366 87.0189 48.595 87.1833C48.1533 87.3477 47.6828 87.4206 47.2121 87.3978H36.2546C36.0704 87.4058 35.8858 87.3893 35.7059 87.3487C34.8826 87.2333 34.1295 86.8224 33.5869 86.1925C33.0444 85.5626 32.7497 84.7568 32.7577 83.9255V52.8055C32.7482 51.9726 33.0435 51.1648 33.588 50.5343C34.1325 49.9039 34.8886 49.4942 35.7141 49.3823C35.893 49.3351 36.0781 49.3157 36.2628 49.325H47.2121C48.1352 49.325 49.0205 49.6917 49.6732 50.3444C50.3259 50.9972 50.6926 51.8825 50.6926 52.8055C50.6926 53.7286 50.3259 54.6139 49.6732 55.2666C49.0205 55.9194 48.1352 56.2861 47.2121 56.2861L39.7597 56.3188Z" fill="#020203"/>
<path d="M72.321 82.9427C72.4776 83.3718 72.5479 83.8275 72.5281 84.2838C72.5082 84.7401 72.3985 85.188 72.2053 85.6018C72.0121 86.0157 71.7391 86.3873 71.402 86.6955C71.0649 87.0037 70.6704 87.2423 70.2409 87.3978C69.8579 87.5494 69.4489 87.6245 69.0371 87.6189C68.3242 87.6134 67.6297 87.3922 67.0449 86.9843C66.4602 86.5765 66.0127 86.0011 65.7613 85.334L60.8476 72.4029H59.3735V84.1384C59.33 85.0397 58.9412 85.8898 58.2879 86.5123C57.6346 87.1348 56.7668 87.4821 55.8643 87.4821C54.9619 87.4821 54.0941 87.1348 53.4408 86.5123C52.7874 85.8898 52.3987 85.0397 52.3552 84.1384V52.8383C52.3638 51.9136 52.7366 51.0297 53.3928 50.3781C54.0489 49.7265 54.9355 49.3599 55.8602 49.3578H62.4118C65.0792 49.3469 67.6424 50.3927 69.5408 52.2666C71.4393 54.1404 72.5184 56.6898 72.5422 59.3571V62.4036C72.5416 64.1066 72.1029 65.7809 71.2681 67.2653C70.4334 68.7497 69.2308 69.9944 67.7759 70.8797L72.321 82.9427ZM59.3899 56.3188V65.4419H62.4609C62.861 65.443 63.2574 65.3652 63.6274 65.2131C63.9974 65.061 64.3339 64.8375 64.6175 64.5554C64.9012 64.2733 65.1265 63.938 65.2806 63.5688C65.4347 63.1996 65.5145 62.8037 65.5156 62.4036V59.3571C65.5145 58.9564 65.4344 58.5597 65.2798 58.19C65.1252 57.8203 64.8992 57.4847 64.6146 57.2024C64.3301 56.9202 63.9927 56.6969 63.6217 56.5452C63.2508 56.3936 62.8535 56.3167 62.4528 56.3188H59.3899Z" fill="#020203"/>
<path d="M81.4031 52.6172V84.1384C81.3596 85.0398 80.9708 85.8898 80.3175 86.5123C79.6642 87.1348 78.7964 87.4821 77.8939 87.4821C76.9915 87.4821 76.1237 87.1348 75.4704 86.5123C74.8171 85.8898 74.4283 85.0398 74.3848 84.1384V52.6172C74.4283 51.7158 74.8171 50.8658 75.4704 50.2433C76.1237 49.6207 76.9915 49.2735 77.8939 49.2735C78.7964 49.2735 79.6642 49.6207 80.3175 50.2433C80.9708 50.8658 81.3596 51.7158 81.4031 52.6172Z" fill="#020203"/>
<path d="M107.2 83.213C107.43 84.1084 107.302 85.0583 106.843 85.861C106.385 86.6637 105.631 87.2561 104.743 87.5125C104.435 87.5721 104.123 87.6077 103.809 87.6189C103.044 87.6136 102.3 87.3625 101.688 86.9024C101.076 86.4423 100.628 85.7978 100.411 85.0638L99.0431 80.0109H91.042L89.6744 85.0638C89.411 85.9546 88.8122 86.7084 88.0042 87.1666C87.1962 87.6249 86.2419 87.7518 85.3422 87.5206C84.4516 87.2679 83.6955 86.6762 83.2362 85.8724C82.7768 85.0686 82.6509 84.1168 82.8854 83.2212L91.6481 51.7082C91.8611 50.9715 92.3077 50.3239 92.9207 49.8631C93.5337 49.4022 94.2798 49.153 95.0467 49.153C95.8136 49.153 96.5597 49.4022 97.1727 49.8631C97.7857 50.3239 98.2323 50.9715 98.4453 51.7082L107.2 83.213ZM97.0613 73.0581L95.0303 65.6876L93.0075 73.0581H97.0613Z" fill="#020203"/>
<path d="M19.5072 94.1787V99.51C19.5072 100.294 19.1957 101.046 18.6413 101.6C18.0869 102.155 17.3349 102.466 16.5508 102.466H14.6181C14.3473 102.464 14.0881 102.356 13.8966 102.164C13.7051 101.973 13.5966 101.714 13.5944 101.443V92.2623C13.5965 91.9907 13.7048 91.7307 13.8961 91.5379C14.0874 91.3451 14.3465 91.2347 14.6181 91.2305H16.5508C17.3322 91.2347 18.0804 91.5465 18.6337 92.0982C19.187 92.65 19.5008 93.3973 19.5072 94.1787ZM17.4516 99.51V94.1787C17.4516 94.0604 17.4283 93.9432 17.3831 93.8339C17.3378 93.7246 17.2715 93.6253 17.1878 93.5417C17.1042 93.458 17.0048 93.3917 16.8955 93.3464C16.7863 93.3011 16.6691 93.2778 16.5508 93.2778H15.65V100.411H16.5508C16.7897 100.411 17.0189 100.316 17.1878 100.147C17.3567 99.9781 17.4516 99.7489 17.4516 99.51Z" fill="#020203"/>
<path d="M22.9304 93.286V95.6691H24.7894C24.9321 95.6564 25.0759 95.6735 25.2116 95.7194C25.3473 95.7652 25.472 95.8388 25.5777 95.9355C25.6834 96.0322 25.7678 96.1498 25.8256 96.2809C25.8833 96.412 25.9131 96.5537 25.9131 96.6969C25.9131 96.8402 25.8833 96.9818 25.8256 97.1129C25.7678 97.244 25.6834 97.3617 25.5777 97.4583C25.472 97.555 25.3473 97.6286 25.2116 97.6745C25.0759 97.7203 24.9321 97.7374 24.7894 97.7247H22.9304V100.419H25.1088C25.2515 100.406 25.3953 100.423 25.531 100.469C25.6667 100.515 25.7914 100.589 25.8971 100.685C26.0028 100.782 26.0872 100.9 26.145 101.031C26.2027 101.162 26.2325 101.304 26.2325 101.447C26.2325 101.59 26.2027 101.732 26.145 101.863C26.0872 101.994 26.0028 102.112 25.8971 102.208C25.7914 102.305 25.6667 102.378 25.531 102.424C25.3953 102.47 25.2515 102.487 25.1088 102.475H21.874C21.8224 102.483 21.77 102.483 21.7184 102.475C21.4746 102.441 21.2517 102.319 21.0918 102.131C20.9319 101.944 20.846 101.705 20.8503 101.459V92.2623C20.846 92.0163 20.9319 91.7771 21.0918 91.59C21.2517 91.4029 21.4746 91.2808 21.7184 91.2469H25.0843C25.3558 91.2469 25.6161 91.3547 25.8081 91.5467C26.0001 91.7387 26.1079 91.999 26.1079 92.2705C26.1079 92.542 26.0001 92.8024 25.8081 92.9944C25.6161 93.1864 25.3558 93.2942 25.0843 93.2942L22.9304 93.286Z" fill="#020203"/>
<path d="M32.7577 94.1213V99.5837C32.7579 99.781 32.823 99.9729 32.9428 100.13C33.0627 100.287 33.2307 100.4 33.4211 100.452C33.6114 100.508 33.8152 100.497 33.9985 100.421C34.1818 100.345 34.3335 100.208 34.4284 100.034C34.4969 99.9165 34.588 99.8137 34.6964 99.7315C34.8048 99.6493 34.9284 99.5893 35.0601 99.5551C35.1918 99.5208 35.3289 99.513 35.4637 99.5319C35.5984 99.5509 35.7281 99.5963 35.8452 99.6656C35.9611 99.7325 36.0626 99.8217 36.1439 99.928C36.2252 100.034 36.2847 100.156 36.3189 100.285C36.3532 100.414 36.3615 100.549 36.3434 100.682C36.3254 100.815 36.2813 100.942 36.2137 101.058C35.9558 101.508 35.5838 101.882 35.1352 102.142C34.6866 102.402 34.1772 102.54 33.6586 102.54C33.3989 102.54 33.1403 102.507 32.8888 102.442C32.262 102.27 31.7088 101.897 31.3139 101.381C30.919 100.865 30.7041 100.234 30.7022 99.5837V94.1213C30.6983 93.469 30.9108 92.8339 31.3064 92.3153C31.7021 91.7968 32.2585 91.424 32.8886 91.2555C33.5187 91.087 34.1869 91.1322 34.7886 91.384C35.3903 91.6358 35.8915 92.0801 36.2137 92.6472C36.2815 92.7633 36.3257 92.8917 36.3439 93.0249C36.3621 93.1582 36.3538 93.2937 36.3196 93.4237C36.2853 93.5538 36.2258 93.6758 36.1444 93.7829C36.063 93.8899 35.9613 93.9799 35.8452 94.0476C35.7276 94.1165 35.5975 94.1615 35.4624 94.1798C35.3273 94.1982 35.19 94.1896 35.0583 94.1546C34.9265 94.1195 34.803 94.0588 34.6949 93.9757C34.5868 93.8927 34.4962 93.7891 34.4284 93.6709C34.3322 93.4981 34.18 93.3633 33.9968 93.2889C33.8136 93.2144 33.6105 93.2047 33.4211 93.2614C33.232 93.3131 33.065 93.425 32.9453 93.5801C32.8256 93.7353 32.7597 93.9253 32.7577 94.1213Z" fill="#020203"/>
<path d="M44.3131 101.238C44.3837 101.502 44.3476 101.783 44.2128 102.02C44.078 102.258 43.8551 102.433 43.5924 102.507C43.5025 102.515 43.412 102.515 43.3221 102.507C43.0967 102.506 42.8778 102.432 42.6978 102.296C42.5178 102.16 42.3864 101.97 42.323 101.754L41.9217 100.255H39.5796L39.1783 101.754C39.1423 101.885 39.0808 102.007 38.9976 102.114C38.9143 102.221 38.8107 102.31 38.6929 102.377C38.575 102.444 38.4451 102.487 38.3106 102.504C38.1761 102.52 38.0396 102.511 37.9089 102.475C37.7783 102.438 37.656 102.377 37.549 102.294C37.4421 102.211 37.3526 102.107 37.2857 101.989C37.2188 101.871 37.1757 101.741 37.159 101.607C37.1423 101.472 37.1522 101.336 37.1883 101.205L39.7515 91.8938C39.8142 91.6772 39.9455 91.4869 40.1257 91.3514C40.3059 91.2159 40.5252 91.1427 40.7507 91.1427C40.9761 91.1427 41.1954 91.2159 41.3756 91.3514C41.5558 91.4869 41.6871 91.6772 41.7498 91.8938L44.3131 101.238ZM41.3485 98.2733L40.7507 96.1113L40.1283 98.2733H41.3485Z" fill="#020203"/>
<path d="M51.3232 94.1787V95.0795C51.3232 95.8636 51.0117 96.6156 50.4573 97.17C49.9029 97.7244 49.1509 98.0359 48.3668 98.0359H47.4987V101.549C47.5115 101.692 47.4944 101.836 47.4485 101.971C47.4027 102.107 47.3291 102.232 47.2324 102.337C47.1357 102.443 47.0181 102.528 46.887 102.585C46.7559 102.643 46.6142 102.673 46.471 102.673C46.3277 102.673 46.186 102.643 46.0549 102.585C45.9238 102.528 45.8062 102.443 45.7095 102.337C45.6129 102.232 45.5392 102.107 45.4934 101.971C45.4475 101.836 45.4304 101.692 45.4432 101.549V92.2623C45.4453 91.9893 45.5547 91.7281 45.7478 91.5351C45.9408 91.342 46.202 91.2326 46.4751 91.2305H48.3996C49.1752 91.2433 49.9151 91.5588 50.4614 92.1096C51.0076 92.6604 51.3169 93.4029 51.3232 94.1787ZM49.2677 95.0795V94.1787C49.2677 94.0607 49.2443 93.944 49.1989 93.8352C49.1536 93.7263 49.0871 93.6275 49.0033 93.5445C48.9196 93.4616 48.8202 93.396 48.7109 93.3516C48.6017 93.3072 48.4847 93.2849 48.3668 93.286H47.4987V95.9803H48.3996C48.6385 95.9803 48.8676 95.8854 49.0366 95.7165C49.2055 95.5475 49.3004 95.3184 49.3004 95.0795" fill="#020203"/>
<path d="M58.4399 101.238C58.5083 101.502 58.4713 101.782 58.3368 102.019C58.2023 102.256 57.9808 102.431 57.7192 102.507C57.6266 102.515 57.5334 102.515 57.4408 102.507C57.2161 102.507 56.9978 102.433 56.8189 102.297C56.6401 102.161 56.5105 101.97 56.4499 101.754L56.0486 100.255H53.6982L53.2969 101.754C53.2223 102.015 53.0486 102.236 52.813 102.371C52.5774 102.506 52.2984 102.543 52.0358 102.475C51.7739 102.398 51.5517 102.223 51.4159 101.987C51.28 101.75 51.241 101.47 51.3069 101.205L53.8784 91.8938C53.9383 91.6758 54.068 91.4836 54.2478 91.3465C54.4276 91.2095 54.6474 91.1353 54.8734 91.1353C55.0994 91.1353 55.3192 91.2095 55.499 91.3465C55.6788 91.4836 55.8086 91.6758 55.8684 91.8938L58.4399 101.238ZM55.4671 98.2734L54.8693 96.0704L54.2797 98.2734H55.4671Z" fill="#020203"/>
<path d="M61.3471 94.1213V99.5837C61.3468 99.78 61.4107 99.971 61.5289 100.128C61.6472 100.284 61.8134 100.398 62.0023 100.452C62.1938 100.507 62.3984 100.495 62.5827 100.42C62.767 100.344 62.9203 100.208 63.0178 100.034C63.1638 99.8186 63.3858 99.6662 63.6395 99.6075C63.8931 99.5489 64.1595 99.5882 64.3853 99.7177C64.6111 99.8472 64.7797 100.057 64.8572 100.306C64.9346 100.554 64.9153 100.823 64.8031 101.058C64.5439 101.508 64.1704 101.883 63.7204 102.143C63.2703 102.403 62.7596 102.54 62.2398 102.54C61.98 102.54 61.7213 102.507 61.47 102.442C60.8432 102.27 60.29 101.897 59.8951 101.381C59.5002 100.865 59.2853 100.234 59.2834 99.5837V94.1213C59.2795 93.469 59.492 92.8339 59.8876 92.3153C60.2832 91.7968 60.8397 91.424 61.4698 91.2555C62.0999 91.087 62.7681 91.1322 63.3698 91.384C63.9715 91.6358 64.4727 92.0801 64.7949 92.6472C64.868 92.8707 64.8625 93.1124 64.7795 93.3324C64.6964 93.5524 64.5408 93.7374 64.3382 93.8568C64.1357 93.9762 63.8984 94.0229 63.6657 93.9891C63.4331 93.9553 63.2189 93.843 63.0587 93.6709C62.9611 93.4974 62.8074 93.3624 62.6228 93.288C62.4382 93.2136 62.2338 93.2042 62.0432 93.2614C61.855 93.3133 61.689 93.4256 61.5707 93.5809C61.4523 93.7362 61.3882 93.926 61.3881 94.1213" fill="#020203"/>
<path d="M68.1853 92.1968V101.549C68.198 101.692 68.1809 101.836 68.1351 101.971C68.0892 102.107 68.0156 102.232 67.9189 102.337C67.8222 102.443 67.7046 102.528 67.5735 102.585C67.4424 102.643 67.3007 102.673 67.1575 102.673C67.0142 102.673 66.8726 102.643 66.7415 102.585C66.6104 102.528 66.4927 102.443 66.3961 102.337C66.2994 102.232 66.2258 102.107 66.1799 101.971C66.1341 101.836 66.117 101.692 66.1297 101.549V92.1968C66.1526 91.9401 66.2709 91.7012 66.4611 91.5272C66.6513 91.3533 66.8997 91.2568 67.1575 91.2568C67.4153 91.2568 67.6637 91.3533 67.8539 91.5272C68.0441 91.7012 68.1623 91.9401 68.1853 92.1968Z" fill="#020203"/>
<path d="M75.5067 92.2623C75.5045 92.5346 75.3948 92.7949 75.2016 92.9867C75.0083 93.1784 74.7471 93.286 74.4748 93.286H73.4184V101.475C73.4311 101.618 73.414 101.762 73.3682 101.898C73.3223 102.033 73.2487 102.158 73.152 102.264C73.0553 102.369 72.9377 102.454 72.8066 102.512C72.6755 102.569 72.5338 102.599 72.3906 102.599C72.2473 102.599 72.1057 102.569 71.9746 102.512C71.8435 102.454 71.7258 102.369 71.6292 102.264C71.5325 102.158 71.4589 102.033 71.413 101.898C71.3672 101.762 71.3501 101.618 71.3628 101.475V93.286H70.2982C70.0414 93.2631 69.8026 93.1449 69.6286 92.9547C69.4546 92.7645 69.3582 92.516 69.3582 92.2582C69.3582 92.0005 69.4546 91.752 69.6286 91.5618C69.8026 91.3716 70.0414 91.2534 70.2982 91.2305H74.4748C74.7478 91.2326 75.009 91.342 75.2021 91.5351C75.3951 91.7281 75.5045 91.9893 75.5067 92.2623Z" fill="#020203"/>
<path d="M82.3285 101.238C82.3969 101.502 82.36 101.782 82.2254 102.019C82.0909 102.256 81.8694 102.431 81.6079 102.507C81.5152 102.515 81.4221 102.515 81.3294 102.507C81.1047 102.507 80.8864 102.433 80.7075 102.297C80.5287 102.161 80.3991 101.97 80.3385 101.754L79.9372 100.255H77.5868L77.1855 101.754C77.1109 102.015 76.9372 102.236 76.7016 102.371C76.466 102.506 76.1871 102.543 75.9244 102.475C75.6625 102.398 75.4403 102.223 75.3045 101.987C75.1686 101.75 75.1296 101.47 75.1955 101.205L77.7998 91.9265C77.8596 91.7086 77.9894 91.5163 78.1692 91.3792C78.3489 91.2422 78.5687 91.168 78.7948 91.168C79.0208 91.168 79.2406 91.2422 79.4204 91.3792C79.6001 91.5163 79.7299 91.7086 79.7898 91.9265L82.3285 101.238ZM79.3558 98.2734L78.7661 96.1114L78.1683 98.2734H79.3558Z" fill="#020203"/>
<path d="M85.2357 94.1213V99.5837C85.2354 99.78 85.2993 99.971 85.4175 100.128C85.5358 100.284 85.702 100.398 85.8909 100.452C86.0824 100.507 86.287 100.495 86.4713 100.42C86.6556 100.344 86.8089 100.208 86.9064 100.034C87.0524 99.8186 87.2744 99.6662 87.5281 99.6075C87.7817 99.5489 88.0481 99.5882 88.2739 99.7177C88.4997 99.8472 88.6683 100.057 88.7458 100.306C88.8232 100.554 88.8039 100.823 88.6917 101.058C88.4332 101.507 88.061 101.881 87.6125 102.141C87.164 102.401 86.655 102.539 86.1366 102.54C85.8768 102.54 85.6181 102.507 85.3668 102.442C84.74 102.27 84.1868 101.897 83.7919 101.381C83.397 100.865 83.1821 100.234 83.1802 99.5837V94.1213C83.1763 93.469 83.3888 92.8339 83.7844 92.3153C84.18 91.7968 84.7365 91.424 85.3666 91.2555C85.9967 91.087 86.6649 91.1322 87.2666 91.384C87.8683 91.6358 88.3695 92.0801 88.6917 92.6472C88.8039 92.8821 88.8232 93.1507 88.7458 93.3992C88.6683 93.6477 88.4997 93.8578 88.2739 93.9873C88.0481 94.1167 87.7817 94.1561 87.5281 94.0974C87.2744 94.0387 87.0524 93.8864 86.9064 93.6709C86.8088 93.4974 86.655 93.3624 86.4705 93.288C86.2859 93.2136 86.0815 93.2042 85.8909 93.2614C85.7027 93.3133 85.5367 93.4256 85.4183 93.5809C85.3 93.7362 85.2359 93.926 85.2357 94.1213Z" fill="#020203"/>
<path d="M92.0739 92.1968V101.549C92.0867 101.692 92.0696 101.836 92.0237 101.971C91.9779 102.107 91.9043 102.232 91.8076 102.337C91.7109 102.443 91.5933 102.528 91.4622 102.585C91.3311 102.643 91.1894 102.673 91.0462 102.673C90.9029 102.673 90.7612 102.643 90.6301 102.585C90.499 102.528 90.3814 102.443 90.2847 102.337C90.1881 102.232 90.1144 102.107 90.0686 101.971C90.0227 101.836 90.0056 101.692 90.0184 101.549V92.1968C90.0413 91.9401 90.1595 91.7012 90.3497 91.5272C90.54 91.3533 90.7884 91.2568 91.0462 91.2568C91.3039 91.2568 91.5524 91.3533 91.7426 91.5272C91.9328 91.7012 92.051 91.9401 92.0739 92.1968Z" fill="#020203"/>
<path d="M99.3216 94.1213V99.5837C99.3216 100.368 99.0101 101.12 98.4557 101.674C97.9013 102.229 97.1493 102.54 96.3652 102.54C95.5811 102.54 94.8292 102.229 94.2747 101.674C93.7203 101.12 93.4088 100.368 93.4088 99.5837V94.1213C93.4088 93.3372 93.7203 92.5853 94.2747 92.0308C94.8292 91.4764 95.5811 91.1649 96.3652 91.1649C97.1493 91.1649 97.9013 91.4764 98.4557 92.0308C99.0101 92.5853 99.3216 93.3372 99.3216 94.1213ZM94.973 89.4533L96.6109 88.0038C96.6975 87.9258 96.7985 87.8657 96.9084 87.8268C97.0182 87.7879 97.1346 87.771 97.251 87.7771C97.3673 87.7831 97.4813 87.8121 97.5865 87.8622C97.6917 87.9124 97.7859 87.9827 97.8639 88.0693C97.9419 88.1559 98.002 88.257 98.0409 88.3668C98.0798 88.4766 98.0967 88.593 98.0906 88.7094C98.0845 88.8257 98.0556 88.9397 98.0055 89.0449C97.9553 89.1501 97.8849 89.2443 97.7984 89.3223L96.1605 90.7718C95.9913 90.9099 95.781 90.9877 95.5626 90.993C95.3844 90.992 95.2106 90.9373 95.0641 90.8359C94.9175 90.7346 94.8049 90.5913 94.7412 90.4248C94.6775 90.2584 94.6655 90.0766 94.7068 89.9032C94.7482 89.7299 94.841 89.5731 94.973 89.4533ZM97.266 99.5837V94.1213C97.266 93.8824 97.1711 93.6533 97.0022 93.4843C96.8333 93.3154 96.6041 93.2205 96.3652 93.2205C96.1263 93.2205 95.8972 93.3154 95.7282 93.4843C95.5593 93.6533 95.4644 93.8824 95.4644 94.1213V99.5837C95.4644 99.8226 95.5593 100.052 95.7282 100.221C95.8972 100.39 96.1263 100.485 96.3652 100.485C96.6041 100.485 96.8333 100.39 97.0022 100.221C97.1711 100.052 97.266 99.8226 97.266 99.5837Z" fill="#020203"/>
<path d="M107.216 92.1968V101.549C107.217 101.785 107.135 102.013 106.986 102.196C106.837 102.378 106.628 102.503 106.397 102.548C106.324 102.563 106.249 102.563 106.176 102.548C105.982 102.547 105.792 102.492 105.627 102.39C105.462 102.287 105.329 102.141 105.243 101.967L102.704 96.5454V101.549C102.717 101.692 102.699 101.836 102.654 101.971C102.608 102.107 102.534 102.232 102.437 102.337C102.341 102.443 102.223 102.528 102.092 102.585C101.961 102.643 101.819 102.673 101.676 102.673C101.533 102.673 101.391 102.643 101.26 102.585C101.129 102.528 101.011 102.443 100.915 102.337C100.818 102.232 100.744 102.107 100.698 101.971C100.653 101.836 100.636 101.692 100.648 101.549V92.1968C100.65 91.9644 100.729 91.7392 100.875 91.5578C101.02 91.3764 101.222 91.2494 101.449 91.1972C101.675 91.1451 101.913 91.171 102.123 91.2707C102.333 91.3703 102.503 91.5379 102.606 91.7464L105.144 97.176V92.1968C105.167 91.9401 105.285 91.7012 105.476 91.5272C105.666 91.3532 105.914 91.2568 106.172 91.2568C106.43 91.2568 106.678 91.3532 106.868 91.5272C107.059 91.7012 107.177 91.9401 107.2 92.1968" fill="#020203"/>
<path d="M16.1168 155.821V156.246C16.1169 156.614 15.9727 156.966 15.7154 157.228C15.458 157.49 15.1081 157.64 14.741 157.647H14.3151V159.285C14.3241 159.354 14.3182 159.424 14.2979 159.491C14.2775 159.558 14.2431 159.62 14.197 159.672C14.1509 159.725 14.0941 159.767 14.0305 159.796C13.9668 159.825 13.8977 159.839 13.8279 159.839C13.758 159.839 13.6889 159.825 13.6253 159.796C13.5616 159.767 13.5048 159.725 13.4587 159.672C13.4126 159.62 13.3782 159.558 13.3578 159.491C13.3375 159.424 13.3316 159.354 13.3406 159.285V154.912C13.3406 154.847 13.3533 154.783 13.378 154.724C13.4027 154.664 13.4389 154.61 13.4845 154.564C13.5301 154.519 13.5843 154.482 13.6439 154.458C13.7035 154.433 13.7674 154.42 13.8319 154.42H14.741C15.1117 154.422 15.4667 154.571 15.7288 154.833C15.991 155.095 16.1392 155.45 16.1414 155.821H16.1168ZM15.1668 156.246V155.821C15.1668 155.708 15.122 155.599 15.0421 155.52C14.9622 155.44 14.8539 155.395 14.741 155.395H14.3151V156.672H14.741C14.8539 156.672 14.9622 156.627 15.0421 156.548C15.122 156.468 15.1668 156.359 15.1668 156.246Z" fill="#020203"/>
<path d="M19.1141 159.162C19.1468 159.287 19.129 159.419 19.0647 159.531C19.0003 159.643 18.8945 159.725 18.7702 159.76H18.6391C18.5328 159.758 18.4298 159.722 18.3457 159.657C18.2615 159.592 18.2007 159.502 18.1723 159.399L18.0167 158.712H16.8702L16.6819 159.416C16.6482 159.542 16.5659 159.649 16.453 159.714C16.3401 159.78 16.2059 159.798 16.0799 159.764C15.954 159.73 15.8465 159.648 15.7812 159.535C15.716 159.422 15.6982 159.288 15.7319 159.162L16.9521 154.781C16.9823 154.679 17.0445 154.59 17.1293 154.527C17.2142 154.464 17.3172 154.43 17.423 154.43C17.5288 154.43 17.6318 154.464 17.7167 154.527C17.8015 154.59 17.8637 154.679 17.8939 154.781L19.1141 159.162ZM17.7055 157.737L17.4271 156.713L17.1405 157.737H17.7055Z" fill="#020203"/>
<path d="M22.1115 159.121C22.1335 159.181 22.1434 159.245 22.1404 159.309C22.1375 159.373 22.1219 159.436 22.0944 159.494C22.067 159.552 22.0283 159.604 21.9806 159.647C21.9329 159.689 21.8772 159.722 21.8167 159.743C21.7627 159.755 21.7069 159.755 21.6529 159.743C21.553 159.743 21.4557 159.712 21.3737 159.655C21.2918 159.598 21.2292 159.518 21.1943 159.424L20.5227 157.614H20.3098V159.252C20.3098 159.38 20.2589 159.503 20.1683 159.594C20.0777 159.684 19.9548 159.735 19.8266 159.735C19.6985 159.735 19.5756 159.684 19.485 159.594C19.3944 159.503 19.3434 159.38 19.3434 159.252V154.879C19.3434 154.75 19.3941 154.626 19.4845 154.534C19.5748 154.442 19.6977 154.39 19.8266 154.387H20.7357C21.1078 154.396 21.4614 154.552 21.7193 154.82C21.9771 155.089 22.1181 155.448 22.1115 155.821V156.246C22.1117 156.485 22.0508 156.719 21.9347 156.927C21.8186 157.135 21.651 157.309 21.4481 157.434L22.1115 159.121ZM20.3098 155.395V156.672H20.7357C20.8486 156.672 20.9569 156.627 21.0368 156.548C21.1166 156.468 21.1615 156.359 21.1615 156.246V155.821C21.1615 155.708 21.1166 155.599 21.0368 155.519C20.9569 155.44 20.8486 155.395 20.7357 155.395H20.3098Z" fill="#020203"/>
<path d="M25.5592 159.162C25.5919 159.287 25.5741 159.419 25.5098 159.531C25.4454 159.643 25.3396 159.725 25.2153 159.76H25.0924C24.9847 159.76 24.8799 159.725 24.7941 159.66C24.7082 159.595 24.6462 159.503 24.6175 159.399L24.4291 158.695H23.3153L23.127 159.399C23.0925 159.524 23.0104 159.63 22.8986 159.694C22.7867 159.758 22.654 159.776 22.5291 159.743C22.4048 159.709 22.299 159.627 22.2347 159.515C22.1703 159.403 22.1525 159.27 22.1852 159.146L23.3972 154.781C23.4299 154.68 23.4934 154.593 23.5787 154.531C23.6641 154.469 23.7668 154.436 23.8722 154.436C23.9776 154.436 24.0804 154.469 24.1657 154.531C24.251 154.593 24.3145 154.68 24.3472 154.781L25.5592 159.162ZM24.1507 157.737L23.8722 156.713L23.5938 157.737H24.1507Z" fill="#020203"/>
<path d="M28.2209 155.395V156.525H29.1053C29.1688 156.525 29.2316 156.537 29.2902 156.562C29.3488 156.586 29.4021 156.622 29.447 156.666C29.4918 156.711 29.5274 156.765 29.5517 156.823C29.576 156.882 29.5885 156.945 29.5885 157.008C29.5864 157.136 29.5348 157.257 29.4446 157.347C29.3545 157.438 29.2328 157.489 29.1053 157.491H28.2209V158.769H29.2527C29.322 158.76 29.3924 158.766 29.4593 158.786C29.5261 158.806 29.5878 158.841 29.6403 158.887C29.6928 158.933 29.7349 158.99 29.7637 159.053C29.7925 159.117 29.8074 159.186 29.8074 159.256C29.8074 159.326 29.7925 159.395 29.7637 159.459C29.7349 159.522 29.6928 159.579 29.6403 159.625C29.5878 159.671 29.5261 159.706 29.4593 159.726C29.3924 159.746 29.322 159.752 29.2527 159.743H27.6558C27.5415 159.727 27.4369 159.67 27.3615 159.583C27.2862 159.496 27.2452 159.384 27.2463 159.268V154.92C27.2449 154.803 27.2856 154.691 27.3608 154.602C27.4361 154.513 27.5408 154.454 27.6558 154.437H29.2527C29.322 154.428 29.3924 154.433 29.4593 154.454C29.5261 154.474 29.5878 154.509 29.6403 154.555C29.6928 154.601 29.7349 154.658 29.7637 154.721C29.7925 154.785 29.8074 154.854 29.8074 154.924C29.8074 154.994 29.7925 155.063 29.7637 155.126C29.7349 155.19 29.6928 155.247 29.6403 155.293C29.5878 155.339 29.5261 155.374 29.4593 155.394C29.3924 155.414 29.322 155.42 29.2527 155.411L28.2209 155.395Z" fill="#020203"/>
<path d="M32.2091 157.336C32.3508 157.481 32.4599 157.654 32.5291 157.845C32.5983 158.036 32.626 158.239 32.6104 158.441C32.5873 158.805 32.426 159.146 32.1595 159.394C31.8929 159.642 31.5414 159.779 31.1772 159.776C31.082 159.788 30.9857 159.788 30.8906 159.776C30.6921 159.736 30.5042 159.655 30.3391 159.538C30.174 159.421 30.0354 159.271 29.9324 159.096C29.9001 159.041 29.8791 158.979 29.8707 158.915C29.8623 158.851 29.8666 158.786 29.8833 158.723C29.9 158.661 29.9289 158.602 29.9682 158.551C30.0076 158.5 30.0566 158.457 30.1126 158.425C30.1679 158.393 30.229 158.372 30.2924 158.364C30.3558 158.355 30.4202 158.36 30.4819 158.376C30.5436 158.393 30.6013 158.422 30.6518 158.461C30.7023 158.501 30.7445 158.549 30.7759 158.605C30.8093 158.662 30.8543 158.711 30.9079 158.749C30.9615 158.787 31.0226 158.813 31.0871 158.826C31.2186 158.849 31.3539 158.82 31.4638 158.744C31.5147 158.703 31.5569 158.652 31.5878 158.595C31.6187 158.537 31.6378 158.474 31.644 158.409C31.6479 158.343 31.6383 158.277 31.6158 158.215C31.5932 158.153 31.5582 158.096 31.513 158.048L30.3009 156.762C30.1598 156.622 30.0509 156.453 29.9816 156.266C29.9123 156.079 29.8843 155.88 29.8996 155.681C29.9168 155.484 29.9753 155.292 30.0712 155.119C30.1671 154.945 30.2984 154.794 30.4565 154.674C30.6129 154.554 30.7934 154.469 30.9856 154.425C31.1779 154.381 31.3773 154.38 31.5703 154.42C31.7666 154.457 31.9526 154.536 32.1152 154.652C32.2778 154.768 32.4133 154.918 32.5121 155.092C32.5747 155.204 32.591 155.336 32.5573 155.46C32.5236 155.584 32.4427 155.69 32.3319 155.755C32.2766 155.787 32.2155 155.808 32.1521 155.816C32.0887 155.825 32.0243 155.82 31.9626 155.804C31.9009 155.787 31.8432 155.758 31.7927 155.719C31.7422 155.679 31.7 155.631 31.6686 155.575C31.6378 155.523 31.5963 155.477 31.547 155.442C31.4976 155.407 31.4414 155.382 31.3819 155.37C31.3233 155.361 31.2634 155.363 31.2057 155.377C31.148 155.391 31.0938 155.417 31.0462 155.452C30.9955 155.487 30.9537 155.534 30.9238 155.588C30.894 155.642 30.877 155.702 30.8742 155.763C30.8708 155.823 30.88 155.884 30.9011 155.94C30.9223 155.996 30.955 156.048 30.997 156.091L32.2091 157.336Z" fill="#020203"/>
<path d="M35.7469 155.821V156.246C35.7469 156.43 35.7107 156.612 35.6403 156.782C35.5699 156.952 35.4668 157.107 35.3367 157.237C35.2067 157.367 35.0523 157.47 34.8824 157.54C34.7125 157.611 34.5304 157.647 34.3465 157.647H33.9206V159.285C33.9207 159.414 33.87 159.537 33.7796 159.629C33.6892 159.721 33.5664 159.774 33.4375 159.776C33.3733 159.776 33.3098 159.763 33.2507 159.739C33.1915 159.714 33.1379 159.677 33.0929 159.632C33.0479 159.586 33.0125 159.532 32.9887 159.472C32.9649 159.413 32.9532 159.349 32.9543 159.285V154.912C32.9532 154.847 32.9649 154.784 32.9887 154.724C33.0125 154.665 33.0479 154.61 33.0929 154.565C33.1379 154.519 33.1915 154.483 33.2507 154.458C33.3098 154.433 33.3733 154.42 33.4375 154.42H34.3465C34.7172 154.422 35.0722 154.571 35.3343 154.833C35.5965 155.095 35.7447 155.45 35.7469 155.821ZM34.7723 156.246V155.821C34.7723 155.708 34.7275 155.599 34.6476 155.52C34.5678 155.44 34.4594 155.395 34.3465 155.395H33.9206V156.672H34.3465C34.4594 156.672 34.5678 156.627 34.6476 156.548C34.7275 156.468 34.7723 156.359 34.7723 156.246Z" fill="#020203"/>
<path d="M36.9671 155.395V156.525H37.8516C37.915 156.525 37.9779 156.537 38.0365 156.562C38.0951 156.586 38.1484 156.622 38.1932 156.666C38.2381 156.711 38.2737 156.765 38.298 156.823C38.3223 156.882 38.3348 156.945 38.3348 157.008C38.3327 157.136 38.2811 157.257 38.1909 157.347C38.1008 157.438 37.9791 157.489 37.8516 157.491H36.9671V158.769H37.999C38.1174 158.784 38.2261 158.842 38.3048 158.932C38.3836 159.021 38.4271 159.137 38.4271 159.256C38.4271 159.375 38.3836 159.491 38.3048 159.58C38.2261 159.67 38.1174 159.728 37.999 159.743H36.4021C36.287 159.729 36.1814 159.673 36.1057 159.585C36.03 159.497 35.9897 159.384 35.9926 159.268V154.92C35.9912 154.803 36.0319 154.69 36.1071 154.602C36.1823 154.513 36.2871 154.454 36.4021 154.437H37.999C38.1174 154.452 38.2261 154.51 38.3048 154.6C38.3836 154.689 38.4271 154.805 38.4271 154.924C38.4271 155.043 38.3836 155.159 38.3048 155.248C38.2261 155.338 38.1174 155.396 37.999 155.411L36.9671 155.395Z" fill="#020203"/>
<path d="M39.6697 155.788V158.376C39.6698 158.469 39.7003 158.559 39.7565 158.633C39.8127 158.707 39.8915 158.76 39.9809 158.785C40.0718 158.812 40.1691 158.807 40.2569 158.772C40.3447 158.736 40.4178 158.671 40.464 158.589C40.4962 158.533 40.5392 158.484 40.5907 158.444C40.6421 158.405 40.7008 158.377 40.7635 158.361C40.8261 158.345 40.8913 158.341 40.9552 158.351C41.0191 158.361 41.0804 158.383 41.1356 158.417C41.1903 158.448 41.2382 158.49 41.2765 158.54C41.3149 158.59 41.3429 158.647 41.3589 158.708C41.3749 158.769 41.3786 158.833 41.3698 158.895C41.361 158.958 41.3398 159.018 41.3076 159.072C41.1534 159.338 40.9159 159.546 40.6316 159.664C40.3474 159.782 40.0323 159.803 39.7349 159.724C39.4376 159.644 39.1747 159.469 38.9867 159.226C38.7988 158.982 38.6963 158.683 38.6951 158.376V155.788C38.6963 155.48 38.7988 155.181 38.9867 154.938C39.1747 154.694 39.4376 154.519 39.7349 154.44C40.0323 154.361 40.3474 154.382 40.6316 154.5C40.9159 154.617 41.1534 154.825 41.3076 155.092C41.34 155.147 41.3613 155.207 41.3702 155.27C41.3791 155.333 41.3755 155.398 41.3595 155.459C41.3435 155.521 41.3155 155.579 41.2771 155.63C41.2387 155.68 41.1906 155.723 41.1356 155.755C41.0797 155.787 41.0179 155.808 40.9539 155.817C40.8899 155.825 40.8248 155.821 40.7625 155.804C40.7001 155.787 40.6416 155.759 40.5904 155.719C40.5392 155.68 40.4963 155.631 40.464 155.575C40.4167 155.493 40.3435 155.43 40.2561 155.394C40.1686 155.358 40.0718 155.353 39.9809 155.378C39.8921 155.405 39.8141 155.458 39.7581 155.532C39.7021 155.606 39.6711 155.695 39.6697 155.788Z" fill="#020203"/>
<path d="M42.6915 154.879V159.285C42.7005 159.354 42.6946 159.424 42.6743 159.491C42.6539 159.558 42.6195 159.62 42.5734 159.672C42.5273 159.725 42.4705 159.767 42.4068 159.796C42.3432 159.825 42.2741 159.839 42.2043 159.839C42.1344 159.839 42.0653 159.825 42.0017 159.796C41.938 159.767 41.8812 159.725 41.8351 159.672C41.789 159.62 41.7546 159.558 41.7342 159.491C41.7139 159.424 41.708 159.354 41.717 159.285V154.879C41.7324 154.761 41.7903 154.652 41.88 154.573C41.9696 154.494 42.0849 154.451 42.2043 154.451C42.3236 154.451 42.4389 154.494 42.5285 154.573C42.6182 154.652 42.6761 154.761 42.6915 154.879Z" fill="#020203"/>
<path d="M46.295 159.162C46.3276 159.287 46.3099 159.419 46.2455 159.531C46.1811 159.643 46.0754 159.725 45.951 159.76H45.8282C45.7204 159.76 45.6156 159.725 45.5298 159.66C45.4439 159.595 45.3819 159.503 45.3532 159.399L45.1648 158.695H44.0511L43.8627 159.399C43.8282 159.524 43.7461 159.63 43.6343 159.694C43.5224 159.758 43.3897 159.776 43.2649 159.743C43.1405 159.709 43.0347 159.627 42.9704 159.515C42.906 159.403 42.8882 159.27 42.9209 159.146L44.1329 154.781C44.1656 154.68 44.2291 154.593 44.3145 154.531C44.3998 154.469 44.5025 154.436 44.6079 154.436C44.7134 154.436 44.8161 154.469 44.9014 154.531C44.9867 154.593 45.0503 154.68 45.0829 154.781L46.295 159.162ZM44.8864 157.737L44.6079 156.713L44.3295 157.737H44.8864Z" fill="#020203"/>
<path d="M49.0057 159.26C49.0057 159.388 48.9547 159.511 48.8641 159.602C48.7735 159.692 48.6506 159.743 48.5225 159.743H46.8846C46.7703 159.727 46.6657 159.67 46.5903 159.583C46.515 159.496 46.474 159.384 46.4751 159.268V154.887C46.4905 154.769 46.5484 154.66 46.6381 154.581C46.7278 154.502 46.843 154.459 46.9624 154.459C47.0817 154.459 47.197 154.502 47.2867 154.581C47.3764 154.66 47.4343 154.769 47.4497 154.887V158.777H48.4815C48.5457 158.777 48.6092 158.79 48.6683 158.815C48.7275 158.839 48.7811 158.876 48.8261 158.921C48.8711 158.967 48.9065 159.021 48.9303 159.081C48.9541 159.141 48.9658 159.204 48.9647 159.268" fill="#020203"/>
<path d="M50.144 154.879V159.285C50.153 159.354 50.1471 159.424 50.1267 159.491C50.1064 159.558 50.072 159.62 50.0259 159.672C49.9797 159.725 49.923 159.767 49.8593 159.796C49.7956 159.825 49.7266 159.839 49.6567 159.839C49.5868 159.839 49.5178 159.825 49.4541 159.796C49.3905 159.767 49.3337 159.725 49.2876 159.672C49.2414 159.62 49.2071 159.558 49.1867 159.491C49.1663 159.424 49.1604 159.354 49.1694 159.285V154.879C49.1848 154.761 49.2427 154.652 49.3324 154.573C49.4221 154.494 49.5373 154.451 49.6567 154.451C49.7761 154.451 49.8913 154.494 49.981 154.573C50.0707 154.652 50.1286 154.761 50.144 154.879Z" fill="#020203"/>
<path d="M52.8464 157.336C52.991 157.479 53.1025 157.652 53.1732 157.843C53.2439 158.034 53.2721 158.238 53.2559 158.441C53.2329 158.805 53.0716 159.146 52.805 159.394C52.5385 159.642 52.187 159.779 51.8228 159.776C51.7276 159.788 51.6313 159.788 51.5361 159.776C51.3377 159.737 51.1497 159.655 50.9847 159.538C50.8196 159.421 50.681 159.271 50.578 159.096C50.5457 159.041 50.5247 158.979 50.5163 158.915C50.5079 158.851 50.5121 158.786 50.5289 158.723C50.5456 158.661 50.5745 158.603 50.6138 158.551C50.6531 158.5 50.7022 158.457 50.7581 158.425C50.8134 158.393 50.8745 158.372 50.9379 158.364C51.0013 158.355 51.0657 158.36 51.1274 158.376C51.1891 158.393 51.2469 158.422 51.2974 158.461C51.3479 158.501 51.39 158.549 51.4215 158.605C51.4548 158.662 51.4998 158.711 51.5534 158.749C51.6071 158.787 51.6682 158.813 51.7327 158.826C51.7965 158.838 51.8619 158.836 51.9251 158.822C51.9884 158.808 52.0482 158.782 52.1012 158.744C52.1532 158.704 52.1967 158.653 52.229 158.595C52.2614 158.538 52.2819 158.474 52.2896 158.409C52.2935 158.343 52.2839 158.277 52.2613 158.215C52.2388 158.153 52.2038 158.096 52.1585 158.048L50.9383 156.795C50.7982 156.654 50.6905 156.485 50.6226 156.298C50.5547 156.111 50.5283 155.912 50.5452 155.714C50.5624 155.517 50.6208 155.325 50.7168 155.151C50.8127 154.978 50.944 154.826 51.1021 154.707C51.2585 154.587 51.439 154.502 51.6312 154.458C51.8234 154.414 52.0229 154.413 52.2159 154.453C52.4116 154.491 52.5969 154.571 52.7593 154.687C52.9217 154.803 53.0575 154.952 53.1576 155.125C53.1874 155.229 53.1817 155.341 53.1414 155.442C53.1011 155.542 53.0284 155.627 52.9348 155.682C52.8412 155.738 52.7319 155.76 52.624 155.747C52.5161 155.733 52.4158 155.684 52.3387 155.608C52.3105 155.555 52.2708 155.509 52.2226 155.474C52.1745 155.438 52.119 155.414 52.0603 155.403C51.9393 155.384 51.8158 155.414 51.7163 155.485C51.668 155.522 51.6283 155.569 51.6001 155.622C51.5718 155.676 51.5555 155.735 51.5525 155.796C51.5491 155.856 51.5583 155.916 51.5795 155.973C51.6006 156.029 51.6333 156.081 51.6754 156.124L52.8464 157.336Z" fill="#020203"/>
<path d="M56.2369 154.912C56.2369 155.04 56.186 155.163 56.0954 155.253C56.0048 155.344 55.8819 155.395 55.7537 155.395H55.2542V159.285C55.2632 159.354 55.2573 159.424 55.2369 159.491C55.2166 159.558 55.1822 159.62 55.1361 159.672C55.0899 159.725 55.0332 159.767 54.9695 159.796C54.9058 159.825 54.8368 159.839 54.7669 159.839C54.697 159.839 54.628 159.825 54.5643 159.796C54.5006 159.767 54.4439 159.725 54.3977 159.672C54.3516 159.62 54.3172 159.558 54.2969 159.491C54.2765 159.424 54.2706 159.354 54.2796 159.285V155.395H53.7801C53.7108 155.404 53.6404 155.398 53.5735 155.378C53.5067 155.357 53.445 155.323 53.3925 155.277C53.34 155.231 53.2979 155.174 53.2691 155.11C53.2403 155.046 53.2254 154.977 53.2254 154.908C53.2254 154.838 53.2403 154.769 53.2691 154.705C53.2979 154.641 53.34 154.584 53.3925 154.538C53.445 154.492 53.5067 154.458 53.5735 154.437C53.6404 154.417 53.7108 154.411 53.7801 154.42H55.7537C55.8179 154.42 55.8814 154.433 55.9405 154.458C55.9997 154.483 56.0533 154.519 56.0983 154.565C56.1433 154.61 56.1787 154.665 56.2025 154.724C56.2263 154.784 56.238 154.847 56.2369 154.912Z" fill="#020203"/>
<path d="M59.1605 159.162C59.1932 159.287 59.1754 159.419 59.1111 159.531C59.0467 159.643 58.9409 159.725 58.8166 159.76H58.6856C58.5792 159.758 58.4763 159.722 58.3921 159.657C58.3079 159.592 58.2471 159.502 58.2188 159.399L58.0304 158.695H56.9166L56.7283 159.399C56.6938 159.524 56.6117 159.63 56.4999 159.694C56.388 159.758 56.2553 159.776 56.1305 159.743C56.0061 159.709 55.9003 159.627 55.836 159.515C55.7716 159.403 55.7538 159.27 55.7865 159.146L56.9985 154.781C57.0312 154.68 57.0947 154.593 57.1801 154.531C57.2654 154.469 57.3681 154.436 57.4735 154.436C57.579 154.436 57.6817 154.469 57.767 154.531C57.8523 154.593 57.9159 154.68 57.9485 154.781L59.1605 159.162ZM57.752 157.737L57.4735 156.713L57.1951 157.737H57.752Z" fill="#020203"/>
<path d="M61.5519 157.336C61.6936 157.481 61.8027 157.654 61.8719 157.845C61.9411 158.036 61.9688 158.239 61.9532 158.441C61.9302 158.805 61.7688 159.146 61.5023 159.394C61.2357 159.642 60.8843 159.779 60.52 159.776C60.4249 159.788 60.3286 159.788 60.2334 159.776C60.0349 159.736 59.847 159.655 59.6819 159.538C59.5168 159.421 59.3783 159.271 59.2752 159.096C59.2429 159.041 59.222 158.979 59.2136 158.915C59.2051 158.851 59.2094 158.786 59.2261 158.723C59.2429 158.661 59.2717 158.602 59.3111 158.551C59.3504 158.5 59.3995 158.457 59.4554 158.425C59.5107 158.393 59.5718 158.372 59.6352 158.364C59.6986 158.355 59.763 158.36 59.8247 158.376C59.8864 158.393 59.9442 158.422 59.9946 158.461C60.0451 158.501 60.0873 158.549 60.1188 158.605C60.1521 158.662 60.1971 158.711 60.2507 158.749C60.3043 158.787 60.3654 158.813 60.43 158.826C60.5614 158.849 60.6967 158.82 60.8067 158.744C60.8575 158.703 60.8997 158.652 60.9306 158.595C60.9616 158.537 60.9807 158.474 60.9868 158.409C60.9907 158.343 60.9811 158.277 60.9586 158.215C60.936 158.153 60.9011 158.096 60.8558 158.048L59.6438 156.795C59.5027 156.655 59.3937 156.485 59.3244 156.299C59.2551 156.112 59.2272 155.913 59.2425 155.714C59.2597 155.517 59.3181 155.325 59.414 155.151C59.51 154.978 59.6412 154.826 59.7994 154.707C59.9577 154.588 60.1396 154.503 60.333 154.459C60.5264 154.416 60.7269 154.413 60.9212 154.453C61.1155 154.492 61.2992 154.573 61.4602 154.688C61.6212 154.804 61.7557 154.953 61.8549 155.125C61.9176 155.237 61.9338 155.369 61.9001 155.493C61.8664 155.617 61.7855 155.723 61.6747 155.788C61.6195 155.82 61.5583 155.841 61.4949 155.849C61.4316 155.857 61.3671 155.853 61.3054 155.836C61.2437 155.82 61.186 155.791 61.1355 155.752C61.085 155.712 61.0428 155.663 61.0114 155.608C60.9806 155.555 60.9392 155.51 60.8898 155.475C60.8404 155.44 60.7842 155.415 60.7248 155.403C60.6662 155.393 60.6062 155.396 60.5486 155.41C60.4909 155.424 60.4366 155.449 60.389 155.485C60.3384 155.52 60.2965 155.566 60.2667 155.62C60.2368 155.674 60.2199 155.734 60.217 155.796C60.2136 155.856 60.2228 155.916 60.244 155.973C60.2651 156.029 60.2978 156.081 60.3399 156.124L61.5519 157.336Z" fill="#020203"/>
<path d="M64.6966 155.395V156.525H65.5729C65.637 156.524 65.7007 156.536 65.7603 156.559C65.8199 156.583 65.8741 156.619 65.9199 156.663C65.9656 156.708 66.0019 156.762 66.0267 156.821C66.0515 156.88 66.0643 156.944 66.0643 157.008C66.0621 157.137 66.0094 157.26 65.9175 157.35C65.8256 157.441 65.7018 157.491 65.5729 157.491H64.6966V158.769H65.7612C65.8796 158.784 65.9883 158.842 66.0671 158.932C66.1459 159.021 66.1893 159.137 66.1893 159.256C66.1893 159.375 66.1459 159.491 66.0671 159.58C65.9883 159.67 65.8796 159.728 65.7612 159.743H64.1234C64.0083 159.729 63.9027 159.673 63.827 159.585C63.7513 159.497 63.711 159.384 63.7139 159.268V154.92C63.7125 154.803 63.7532 154.69 63.8284 154.602C63.9036 154.513 64.0084 154.454 64.1234 154.437H65.7612C65.8796 154.452 65.9883 154.51 66.0671 154.6C66.1459 154.689 66.1893 154.805 66.1893 154.924C66.1893 155.043 66.1459 155.159 66.0671 155.248C65.9883 155.338 65.8796 155.396 65.7612 155.411L64.6966 155.395Z" fill="#020203"/>
<path d="M69.6512 154.879V159.285C69.6521 159.395 69.6152 159.502 69.5466 159.589C69.4781 159.675 69.3821 159.735 69.2745 159.76C69.2394 159.768 69.2031 159.768 69.168 159.76C69.0758 159.759 68.9857 159.732 68.9076 159.683C68.8296 159.634 68.7666 159.564 68.7258 159.481L67.522 156.918V159.268C67.522 159.397 67.4713 159.521 67.381 159.613C67.2906 159.705 67.1677 159.758 67.0388 159.76C66.9746 159.76 66.9111 159.747 66.852 159.722C66.7928 159.697 66.7392 159.661 66.6942 159.615C66.6492 159.57 66.6138 159.515 66.59 159.456C66.5662 159.396 66.5545 159.333 66.5556 159.268V154.862C66.5548 154.752 66.5917 154.645 66.6602 154.559C66.7287 154.472 66.8248 154.412 66.9323 154.388C67.0399 154.363 67.1526 154.376 67.2521 154.423C67.3516 154.471 67.4322 154.551 67.481 154.65L68.6767 157.237V154.879C68.6921 154.76 68.75 154.652 68.8397 154.573C68.9293 154.494 69.0446 154.451 69.164 154.451C69.2833 154.451 69.3986 154.494 69.4882 154.573C69.5779 154.652 69.6358 154.76 69.6512 154.879Z" fill="#020203"/>
<path d="M72.5421 155.788V158.376C72.5275 158.479 72.5514 158.585 72.6094 158.672C72.6674 158.759 72.7554 158.821 72.8566 158.847C72.9578 158.874 73.0651 158.862 73.1581 158.814C73.2512 158.766 73.3234 158.686 73.361 158.589C73.3923 158.533 73.4346 158.484 73.4853 158.445C73.536 158.406 73.5941 158.377 73.656 158.361C73.718 158.345 73.7826 158.342 73.8459 158.351C73.9092 158.361 73.9699 158.383 74.0244 158.417C74.1346 158.48 74.2153 158.585 74.2491 158.707C74.2828 158.83 74.2668 158.961 74.2045 159.072C74.0822 159.285 73.9058 159.463 73.693 159.587C73.4802 159.71 73.2386 159.776 72.9925 159.776C72.8707 159.776 72.7494 159.76 72.6322 159.727C72.3342 159.648 72.0708 159.472 71.8828 159.228C71.6947 158.984 71.5925 158.684 71.5921 158.376V155.788C71.5933 155.48 71.6958 155.181 71.8837 154.938C72.0717 154.694 72.3346 154.519 72.6319 154.44C72.9292 154.361 73.2444 154.382 73.5286 154.5C73.8129 154.617 74.0504 154.825 74.2045 155.092C74.2672 155.204 74.2834 155.336 74.2497 155.46C74.2161 155.584 74.1352 155.69 74.0244 155.755C73.9691 155.787 73.908 155.808 73.8446 155.816C73.7812 155.825 73.7168 155.82 73.6551 155.804C73.5934 155.787 73.5356 155.758 73.4851 155.719C73.4347 155.679 73.3925 155.631 73.361 155.575C73.3127 155.494 73.2394 155.431 73.1523 155.396C73.0651 155.361 72.9688 155.354 72.8778 155.378C72.7891 155.405 72.7111 155.458 72.6551 155.532C72.5991 155.606 72.5681 155.695 72.5666 155.788" fill="#020203"/>
<path d="M77.3002 155.788V158.376C77.3002 158.747 77.1526 159.103 76.89 159.366C76.6274 159.629 76.2712 159.776 75.8998 159.776C75.5284 159.776 75.1722 159.629 74.9096 159.366C74.6469 159.103 74.4994 158.747 74.4994 158.376V155.788C74.4994 155.416 74.6469 155.06 74.9096 154.798C75.1722 154.535 75.5284 154.387 75.8998 154.387C76.2712 154.387 76.6274 154.535 76.89 154.798C77.1526 155.06 77.3002 155.416 77.3002 155.788ZM76.3256 158.376V155.788C76.3235 155.676 76.278 155.568 76.1986 155.489C76.1192 155.41 76.0121 155.364 75.8998 155.362C75.8439 155.362 75.7885 155.373 75.7368 155.394C75.6852 155.416 75.6382 155.447 75.5987 155.487C75.5591 155.526 75.5278 155.573 75.5064 155.625C75.485 155.677 75.4739 155.732 75.4739 155.788V158.376C75.4739 158.489 75.5188 158.597 75.5987 158.677C75.6785 158.757 75.7868 158.802 75.8998 158.802C76.0127 158.802 76.1211 158.757 76.2009 158.677C76.2808 158.597 76.3256 158.489 76.3256 158.376Z" fill="#020203"/>
<path d="M80.8543 154.879V159.285C80.8537 159.395 80.8163 159.501 80.748 159.587C80.6797 159.673 80.5845 159.734 80.4776 159.76C80.4425 159.767 80.4063 159.767 80.3712 159.76C80.2787 159.76 80.1882 159.734 80.11 159.684C80.0317 159.635 79.969 159.565 79.9289 159.481L78.7251 156.918V159.268C78.7341 159.338 78.7282 159.408 78.7078 159.475C78.6875 159.542 78.6531 159.604 78.607 159.656C78.5609 159.709 78.5041 159.751 78.4404 159.779C78.3768 159.808 78.3077 159.823 78.2378 159.823C78.168 159.823 78.0989 159.808 78.0352 159.779C77.9716 159.751 77.9148 159.709 77.8687 159.656C77.8226 159.604 77.7882 159.542 77.7678 159.475C77.7474 159.408 77.7416 159.338 77.7506 159.268V154.863C77.7516 154.751 77.7902 154.644 77.8601 154.558C77.93 154.472 78.0271 154.412 78.1355 154.388C78.2419 154.364 78.3532 154.377 78.4514 154.424C78.5495 154.472 78.6287 154.551 78.676 154.65L79.8798 157.237V154.879C79.8952 154.761 79.9531 154.652 80.0428 154.573C80.1324 154.494 80.2477 154.451 80.3671 154.451C80.4864 154.451 80.6017 154.494 80.6914 154.573C80.781 154.652 80.839 154.761 80.8543 154.879Z" fill="#020203"/>
<path d="M83.5323 157.336C83.6741 157.481 83.7832 157.655 83.8524 157.845C83.9216 158.036 83.9493 158.239 83.9336 158.441C83.9106 158.805 83.7493 159.146 83.4827 159.394C83.2162 159.642 82.8647 159.779 82.5005 159.776C82.4053 159.788 82.309 159.788 82.2138 159.776C82.0154 159.737 81.8275 159.655 81.6624 159.538C81.4973 159.421 81.3587 159.271 81.2557 159.096C81.2234 159.041 81.2024 158.979 81.194 158.915C81.1856 158.851 81.1898 158.786 81.2066 158.723C81.2233 158.661 81.2522 158.603 81.2915 158.551C81.3308 158.5 81.3799 158.457 81.4358 158.425C81.4911 158.393 81.5522 158.372 81.6156 158.364C81.679 158.355 81.7434 158.36 81.8051 158.376C81.8668 158.393 81.9246 158.422 81.9751 158.461C82.0256 158.501 82.0677 158.549 82.0992 158.605C82.1326 158.662 82.1775 158.711 82.2312 158.749C82.2848 158.787 82.3459 158.813 82.4104 158.826C82.5418 158.849 82.6772 158.82 82.7871 158.744C82.838 158.703 82.8801 158.652 82.9111 158.595C82.942 158.537 82.9611 158.474 82.9673 158.409C82.9712 158.343 82.9616 158.277 82.939 158.215C82.9165 158.153 82.8815 158.096 82.8362 158.048L81.6242 156.795C81.4831 156.655 81.3741 156.485 81.3048 156.299C81.2356 156.112 81.2076 155.913 81.2229 155.714C81.2401 155.517 81.2985 155.325 81.3945 155.151C81.4904 154.978 81.6217 154.826 81.7798 154.707C81.9362 154.587 82.1167 154.502 82.3089 154.458C82.5011 154.414 82.7006 154.413 82.8936 154.453C83.0893 154.491 83.2746 154.571 83.437 154.687C83.5995 154.803 83.7353 154.952 83.8354 155.125C83.898 155.237 83.9142 155.369 83.8806 155.493C83.8469 155.617 83.766 155.723 83.6552 155.788C83.5999 155.82 83.5388 155.841 83.4754 155.849C83.412 155.857 83.3476 155.853 83.2859 155.836C83.2242 155.82 83.1664 155.791 83.1159 155.752C83.0655 155.712 83.0233 155.663 82.9918 155.608C82.961 155.555 82.9196 155.51 82.8702 155.475C82.8209 155.44 82.7646 155.415 82.7052 155.403C82.5843 155.384 82.4607 155.414 82.3613 155.485C82.313 155.522 82.2733 155.569 82.245 155.622C82.2167 155.676 82.2005 155.735 82.1975 155.796C82.1941 155.856 82.2033 155.916 82.2244 155.973C82.2456 156.029 82.2782 156.081 82.3203 156.124L83.5323 157.336Z" fill="#020203"/>
<path d="M86.9555 154.912C86.9534 155.041 86.9007 155.163 86.8088 155.254C86.7168 155.344 86.5931 155.395 86.4642 155.395H85.9892V159.285C85.9982 159.354 85.9923 159.424 85.9719 159.491C85.9516 159.558 85.9172 159.62 85.8711 159.672C85.825 159.725 85.7682 159.767 85.7045 159.796C85.6409 159.825 85.5718 159.839 85.5019 159.839C85.432 159.839 85.363 159.825 85.2993 159.796C85.2357 159.767 85.1789 159.725 85.1328 159.672C85.0866 159.62 85.0523 159.558 85.0319 159.491C85.0115 159.424 85.0056 159.354 85.0146 159.285V155.395H84.5151C84.4458 155.404 84.3754 155.398 84.3085 155.378C84.2417 155.357 84.18 155.323 84.1275 155.277C84.075 155.231 84.0329 155.174 84.0041 155.11C83.9753 155.046 83.9604 154.977 83.9604 154.908C83.9604 154.838 83.9753 154.769 84.0041 154.705C84.0329 154.641 84.075 154.584 84.1275 154.538C84.18 154.492 84.2417 154.458 84.3085 154.437C84.3754 154.417 84.4458 154.411 84.5151 154.42H86.4887C86.6191 154.42 86.744 154.472 86.8362 154.564C86.9283 154.656 86.9801 154.781 86.9801 154.912" fill="#020203"/>
<path d="M89.9611 159.121C89.9845 159.181 89.9956 159.244 89.9937 159.308C89.9919 159.372 89.9771 159.435 89.9504 159.493C89.9236 159.551 89.8854 159.604 89.8379 159.647C89.7905 159.689 89.7349 159.722 89.6744 159.743C89.6204 159.755 89.5646 159.755 89.5106 159.743C89.4105 159.744 89.3126 159.714 89.2305 159.657C89.1483 159.6 89.086 159.518 89.052 159.424L88.3723 157.614H88.1676V159.252C88.1766 159.321 88.1707 159.392 88.1503 159.459C88.13 159.525 88.0956 159.587 88.0495 159.64C88.0033 159.692 87.9466 159.734 87.8829 159.763C87.8192 159.792 87.7502 159.807 87.6803 159.807C87.6104 159.807 87.5414 159.792 87.4777 159.763C87.414 159.734 87.3573 159.692 87.3111 159.64C87.265 159.587 87.2306 159.525 87.2103 159.459C87.1899 159.392 87.184 159.321 87.193 159.252V154.879C87.193 154.749 87.2448 154.624 87.3369 154.531C87.4291 154.439 87.5541 154.387 87.6844 154.387H88.5934C88.9642 154.39 89.3191 154.538 89.5813 154.8C89.8434 155.062 89.9917 155.417 89.9938 155.788V156.214C89.994 156.452 89.9332 156.686 89.817 156.894C89.7009 157.102 89.5334 157.277 89.3305 157.401L89.9611 159.121ZM88.1676 155.395V156.672H88.5934C88.7064 156.672 88.8147 156.627 88.8946 156.548C88.9744 156.468 89.0193 156.359 89.0193 156.246V155.821C89.0193 155.708 88.9744 155.599 88.8946 155.519C88.8147 155.44 88.7064 155.395 88.5934 155.395H88.1676Z" fill="#020203"/>
<path d="M93.0894 154.879V158.376C93.0894 158.747 92.9419 159.103 92.6792 159.366C92.4166 159.629 92.0604 159.776 91.689 159.776C91.3176 159.776 90.9614 159.629 90.6988 159.366C90.4362 159.103 90.2886 158.747 90.2886 158.376V154.879C90.304 154.761 90.3619 154.652 90.4516 154.573C90.5413 154.494 90.6565 154.451 90.7759 154.451C90.8953 154.451 91.0105 154.494 91.1002 154.573C91.1899 154.652 91.2478 154.761 91.2632 154.879V158.376C91.2886 158.465 91.3423 158.543 91.4162 158.599C91.4901 158.654 91.5801 158.685 91.6726 158.685C91.7652 158.685 91.8552 158.654 91.9291 158.599C92.003 158.543 92.0567 158.465 92.0821 158.376V154.879C92.0975 154.761 92.1554 154.652 92.2451 154.573C92.3347 154.494 92.45 154.451 92.5694 154.451C92.6887 154.451 92.804 154.494 92.8937 154.573C92.9833 154.652 93.0413 154.761 93.0566 154.879" fill="#020203"/>
<path d="M94.4652 155.788V158.376C94.4506 158.479 94.4746 158.585 94.5326 158.672C94.5906 158.759 94.6786 158.821 94.7797 158.847C94.8809 158.874 94.9883 158.862 95.0813 158.814C95.1743 158.766 95.2465 158.686 95.2842 158.589C95.3155 158.533 95.3578 158.484 95.4085 158.445C95.4592 158.406 95.5172 158.377 95.5792 158.361C95.6412 158.345 95.7057 158.342 95.769 158.351C95.8323 158.361 95.893 158.383 95.9475 158.417C96.0578 158.48 96.1385 158.585 96.1722 158.707C96.206 158.83 96.1899 158.961 96.1277 159.072C96.0047 159.285 95.8281 159.462 95.6155 159.585C95.4029 159.709 95.1616 159.775 94.9157 159.776C94.7912 159.776 94.6673 159.759 94.5471 159.727C94.2507 159.646 93.9891 159.47 93.8027 159.226C93.6162 158.982 93.5152 158.683 93.5153 158.376V155.788C93.5164 155.48 93.6189 155.181 93.8069 154.938C93.9948 154.694 94.2578 154.519 94.5551 154.44C94.8524 154.361 95.1675 154.382 95.4518 154.5C95.736 154.617 95.9736 154.825 96.1277 155.092C96.1904 155.204 96.2066 155.336 96.1729 155.46C96.1392 155.584 96.0583 155.69 95.9475 155.755C95.8922 155.787 95.8311 155.808 95.7677 155.816C95.7043 155.825 95.6399 155.82 95.5782 155.804C95.5165 155.787 95.4588 155.758 95.4083 155.719C95.3578 155.679 95.3156 155.631 95.2842 155.575C95.2465 155.477 95.1743 155.397 95.0813 155.349C94.9883 155.302 94.8809 155.29 94.7797 155.316C94.6786 155.342 94.5906 155.405 94.5326 155.492C94.4746 155.579 94.4506 155.684 94.4652 155.788Z" fill="#020203"/>
<path d="M97.3888 155.788V158.376C97.388 158.47 97.4192 158.562 97.4772 158.636C97.5351 158.71 97.6166 158.763 97.7082 158.785C97.7979 158.812 97.894 158.807 97.9804 158.771C98.0668 158.735 98.1384 158.671 98.1832 158.589C98.2153 158.533 98.2584 158.483 98.3098 158.444C98.3612 158.405 98.42 158.377 98.4826 158.361C98.5452 158.345 98.6104 158.341 98.6744 158.351C98.7383 158.361 98.7996 158.383 98.8547 158.417C98.9103 158.447 98.959 158.489 98.998 158.539C99.037 158.589 99.0654 158.646 99.0815 158.707C99.0976 158.769 99.1011 158.833 99.0916 158.895C99.0822 158.958 99.0601 159.018 99.0267 159.072C98.8749 159.34 98.6382 159.551 98.3538 159.671C98.0693 159.79 97.7532 159.812 97.4551 159.732C97.1571 159.652 96.8939 159.476 96.707 159.23C96.5201 158.985 96.42 158.684 96.4225 158.376V155.788C96.42 155.479 96.5201 155.179 96.707 154.933C96.8939 154.688 97.1571 154.511 97.4551 154.432C97.7532 154.352 98.0693 154.374 98.3538 154.493C98.6382 154.613 98.8749 154.823 99.0267 155.092C99.0592 155.147 99.0805 155.207 99.0894 155.27C99.0983 155.333 99.0947 155.398 99.0787 155.459C99.0627 155.521 99.0347 155.579 98.9963 155.63C98.9578 155.68 98.9097 155.723 98.8547 155.755C98.7988 155.787 98.7371 155.808 98.6731 155.817C98.6091 155.825 98.544 155.821 98.4816 155.804C98.4193 155.787 98.3608 155.759 98.3096 155.719C98.2584 155.68 98.2154 155.631 98.1832 155.575C98.1373 155.494 98.0656 155.431 97.9795 155.395C97.8935 155.359 97.798 155.354 97.7082 155.378C97.618 155.403 97.5381 155.456 97.4805 155.53C97.423 155.604 97.3908 155.694 97.3888 155.788Z" fill="#020203"/>
<path d="M100.411 154.879V159.285C100.42 159.354 100.414 159.424 100.394 159.491C100.373 159.558 100.339 159.62 100.293 159.672C100.247 159.725 100.19 159.767 100.126 159.796C100.062 159.825 99.9934 159.839 99.9235 159.839C99.8536 159.839 99.7846 159.825 99.7209 159.796C99.6572 159.767 99.6005 159.725 99.5543 159.672C99.5082 159.62 99.4738 159.558 99.4535 159.491C99.4331 159.424 99.4272 159.354 99.4362 159.285V154.879C99.4516 154.761 99.5095 154.652 99.5992 154.573C99.6889 154.494 99.8041 154.451 99.9235 154.451C100.043 154.451 100.158 154.494 100.248 154.573C100.337 154.652 100.395 154.761 100.411 154.879Z" fill="#020203"/>
<path d="M103.662 155.788V158.376C103.677 158.568 103.652 158.761 103.588 158.944C103.525 159.126 103.424 159.293 103.293 159.434C103.162 159.576 103.003 159.689 102.826 159.766C102.649 159.843 102.459 159.883 102.266 159.883C102.073 159.883 101.882 159.843 101.705 159.766C101.528 159.689 101.369 159.576 101.238 159.434C101.107 159.293 101.007 159.126 100.943 158.944C100.88 158.761 100.855 158.568 100.869 158.376V155.788C100.855 155.596 100.88 155.402 100.943 155.22C101.007 155.038 101.107 154.871 101.238 154.729C101.369 154.588 101.528 154.475 101.705 154.398C101.882 154.32 102.073 154.28 102.266 154.28C102.459 154.28 102.649 154.32 102.826 154.398C103.003 154.475 103.162 154.588 103.293 154.729C103.424 154.871 103.525 155.038 103.588 155.22C103.652 155.402 103.677 155.596 103.662 155.788ZM101.606 153.577L102.368 152.897C102.409 152.859 102.457 152.83 102.509 152.811C102.561 152.792 102.616 152.783 102.672 152.786C102.727 152.788 102.782 152.802 102.832 152.825C102.882 152.849 102.927 152.883 102.964 152.924C103.001 152.966 103.029 153.014 103.047 153.067C103.066 153.119 103.073 153.175 103.069 153.23C103.066 153.285 103.051 153.34 103.026 153.389C103.002 153.439 102.967 153.483 102.925 153.519L102.172 154.199C102.092 154.268 101.99 154.305 101.885 154.306C101.827 154.307 101.769 154.295 101.715 154.273C101.662 154.25 101.614 154.217 101.574 154.175C101.497 154.094 101.454 153.987 101.454 153.876C101.454 153.764 101.497 153.657 101.574 153.577H101.606ZM102.663 158.376V155.788C102.661 155.676 102.615 155.569 102.536 155.489C102.456 155.41 102.349 155.364 102.237 155.362C102.124 155.362 102.016 155.407 101.936 155.487C101.856 155.567 101.811 155.675 101.811 155.788V158.376C101.811 158.432 101.822 158.487 101.844 158.539C101.865 158.59 101.896 158.637 101.936 158.677C101.975 158.716 102.022 158.748 102.074 158.769C102.126 158.791 102.181 158.802 102.237 158.802C102.293 158.802 102.348 158.791 102.4 158.769C102.452 158.748 102.499 158.716 102.538 158.677C102.578 158.637 102.609 158.59 102.63 158.539C102.652 158.487 102.663 158.432 102.663 158.376Z" fill="#020203"/>
<path d="M107.224 154.879V159.285C107.223 159.396 107.185 159.503 107.115 159.589C107.045 159.676 106.948 159.736 106.84 159.76C106.807 159.768 106.774 159.768 106.741 159.76C106.649 159.76 106.558 159.734 106.48 159.684C106.402 159.635 106.339 159.565 106.299 159.481L105.095 156.918V159.268C105.104 159.338 105.098 159.408 105.078 159.475C105.058 159.542 105.023 159.604 104.977 159.656C104.931 159.709 104.874 159.751 104.81 159.779C104.747 159.808 104.678 159.823 104.608 159.823C104.538 159.823 104.469 159.808 104.405 159.779C104.342 159.751 104.285 159.709 104.239 159.656C104.193 159.604 104.158 159.542 104.138 159.475C104.117 159.408 104.112 159.338 104.121 159.268V154.863C104.122 154.751 104.16 154.644 104.23 154.558C104.3 154.472 104.397 154.412 104.506 154.388C104.612 154.364 104.723 154.377 104.821 154.424C104.92 154.472 104.999 154.551 105.046 154.65L106.25 157.221V154.863C106.265 154.744 106.323 154.635 106.413 154.557C106.503 154.478 106.618 154.434 106.737 154.434C106.857 154.434 106.972 154.478 107.061 154.557C107.151 154.635 107.209 154.744 107.224 154.863" fill="#020203"/>
<path d="M118.903 105.382H1.48224V138.492H118.903V105.382Z" fill="#020101"/>
<path d="M58.8739 153.094H56.2532L62.0432 142.39H64.6556L58.8739 153.094Z" fill="#020203"/>
<path d="M64.0005 153.094H61.3799L67.1616 142.39H69.7823L64.0005 153.094Z" fill="#020203"/>
<path d="M69.1271 153.094H66.5065L72.2882 142.39H74.9088L69.1271 153.094Z" fill="#020203"/>
<path d="M74.2455 153.094H71.6331L77.4149 142.39H80.0273L74.2455 153.094Z" fill="#020203"/>
<path d="M79.4376 153.094H76.817L82.6069 142.39H85.2193L79.4376 153.094Z" fill="#020203"/>
<path d="M84.5642 153.094H81.9435L87.7253 142.39H90.3459L84.5642 153.094Z" fill="#020203"/>
<path d="M38.3757 153.094H35.7551L41.545 142.39H44.1574L38.3757 153.094Z" fill="#020203"/>
<path d="M43.5023 153.094H40.8817L46.6634 142.39H49.284L43.5023 153.094Z" fill="#020203"/>
<path d="M48.6289 153.094H46.0082L51.79 142.39H54.4106L48.6289 153.094Z" fill="#020203"/>
<path d="M53.7473 153.094H51.1348L56.9166 142.39H59.5372L53.7473 153.094Z" fill="#020203"/>
<path d="M17.6482 153.094H15.0358L20.8175 142.39H23.4381L17.6482 153.094Z" fill="#020203"/>
<path d="M22.7748 153.094H20.1542L25.9441 142.39H28.5566L22.7748 153.094Z" fill="#020203"/>
<path d="M27.9014 153.094H25.2808L31.0707 142.39H33.6831L27.9014 153.094Z" fill="#020203"/>
<path d="M33.028 153.094H30.4073L36.1891 142.39H38.8097L33.028 153.094Z" fill="#020203"/>
<path d="M12.5298 153.094H9.90918L15.6909 142.39H18.3116L12.5298 153.094Z" fill="#020203"/>
<path d="M89.3223 153.094H86.7017L92.4834 142.39H95.104L89.3223 153.094Z" fill="#020203"/>
<path d="M94.4406 153.094H91.8282L97.6099 142.39H100.231L94.4406 153.094Z" fill="#020203"/>
<path d="M99.5673 153.094H96.9548L102.737 142.39H105.349L99.5673 153.094Z" fill="#020203"/>
<path d="M104.694 153.094H102.073L107.855 142.39H110.476L104.694 153.094Z" fill="#020203"/>
<path d="M15.3551 128.492V115.84C15.3262 115.079 15.451 114.32 15.7221 113.609C15.9933 112.898 16.4051 112.248 16.9331 111.7C17.461 111.151 18.0942 110.715 18.7947 110.417C19.4952 110.119 20.2487 109.966 21.0099 109.966C21.7712 109.966 22.5246 110.119 23.2251 110.417C23.9256 110.715 24.5588 111.151 25.0868 111.7C25.6147 112.248 26.0266 112.898 26.2977 113.609C26.5689 114.32 26.6937 115.079 26.6647 115.84V128.492C26.6937 129.253 26.5689 130.012 26.2977 130.723C26.0266 131.435 25.6147 132.084 25.0868 132.632C24.5588 133.181 23.9256 133.617 23.2251 133.915C22.5246 134.213 21.7712 134.367 21.0099 134.367C20.2487 134.367 19.4952 134.213 18.7947 133.915C18.0942 133.617 17.461 133.181 16.9331 132.632C16.4051 132.084 15.9933 131.435 15.7221 130.723C15.451 130.012 15.3262 129.253 15.3551 128.492ZM17.7382 115.84V128.492C17.7382 129.361 18.0834 130.194 18.6977 130.809C19.312 131.423 20.1452 131.768 21.014 131.768C21.8828 131.768 22.716 131.423 23.3303 130.809C23.9447 130.194 24.2898 129.361 24.2898 128.492V115.84C24.2898 114.971 23.9447 114.138 23.3303 113.523C22.716 112.909 21.8828 112.564 21.014 112.564C20.1452 112.564 19.312 112.909 18.6977 113.523C18.0834 114.138 17.7382 114.971 17.7382 115.84Z" fill="#FFDD00"/>
<path d="M21.0141 134.921C19.3083 134.921 17.6723 134.244 16.4654 133.039C15.2585 131.833 14.5793 130.198 14.5772 128.492V115.84C14.5463 114.976 14.6899 114.114 14.9993 113.307C15.3087 112.499 15.7776 111.763 16.3779 111.141C16.9783 110.518 17.6979 110.023 18.4937 109.685C19.2896 109.347 20.1453 109.173 21.01 109.173C21.8746 109.173 22.7304 109.347 23.5262 109.685C24.322 110.023 25.0416 110.518 25.642 111.141C26.2424 111.763 26.7113 112.499 27.0207 113.307C27.3301 114.114 27.4736 114.976 27.4428 115.84V128.492C27.4406 130.197 26.7626 131.831 25.5575 133.036C24.3523 134.241 22.7184 134.919 21.0141 134.921ZM21.0141 110.959C19.7109 110.959 18.4611 111.477 17.5396 112.398C16.6181 113.319 16.1004 114.569 16.1004 115.872V128.492C16.2311 129.697 16.802 130.81 17.7036 131.62C18.6052 132.429 19.774 132.876 20.9854 132.876C22.1968 132.876 23.3656 132.429 24.2672 131.62C25.1688 130.81 25.7398 129.697 25.8704 128.492V115.84C25.8704 114.537 25.3527 113.287 24.4312 112.365C23.5097 111.444 22.2599 110.926 20.9567 110.926L21.0141 110.959ZM20.9567 132.505C19.8863 132.495 18.8626 132.065 18.1049 131.309C17.3472 130.553 16.9158 129.53 16.903 128.46V115.84C16.8783 115.293 16.9649 114.746 17.1573 114.233C17.3497 113.721 17.644 113.252 18.0225 112.856C18.401 112.46 18.8557 112.145 19.3593 111.93C19.8629 111.715 20.405 111.604 20.9526 111.604C21.5003 111.604 22.0423 111.715 22.5459 111.93C23.0496 112.145 23.5043 112.46 23.8828 112.856C24.2613 113.252 24.5556 113.721 24.748 114.233C24.9404 114.746 25.0269 115.293 25.0023 115.84V128.492C25.0023 129.565 24.5761 130.594 23.8174 131.353C23.0587 132.112 22.0297 132.538 20.9567 132.538V132.505ZM20.9567 113.342C20.2999 113.34 19.6686 113.596 19.1996 114.056C18.7306 114.516 18.4615 115.142 18.4508 115.799V128.492C18.4507 128.819 18.5158 129.143 18.6424 129.444C18.7689 129.745 18.9543 130.018 19.1876 130.247C19.421 130.476 19.6977 130.656 20.0015 130.777C20.3052 130.897 20.63 130.956 20.9567 130.949C21.6115 130.947 22.2395 130.689 22.7063 130.23C23.1731 129.771 23.4417 129.147 23.4545 128.492V115.84C23.4356 115.187 23.1651 114.567 22.6996 114.109C22.2341 113.651 21.6096 113.391 20.9567 113.383" fill="#FFDD00"/>
<path d="M43.4859 133.488C42.4459 131.367 41.4386 129.246 40.4394 127.199C38.7606 123.734 36.7132 119.459 35.3374 116.593V132.972C35.3511 133.137 35.3304 133.303 35.2768 133.459C35.2231 133.615 35.1376 133.759 35.0256 133.881C34.9136 134.002 34.7776 134.099 34.6262 134.166C34.4748 134.232 34.3112 134.267 34.1459 134.267C33.9805 134.267 33.817 134.232 33.6655 134.166C33.5141 134.099 33.3781 134.002 33.2661 133.881C33.1542 133.759 33.0686 133.615 33.0149 133.459C32.9613 133.303 32.9406 133.137 32.9543 132.972V111.376C32.9512 111.106 33.0429 110.844 33.2135 110.634C33.3841 110.425 33.6227 110.282 33.8879 110.23C34.1488 110.173 34.421 110.205 34.6624 110.319C34.9038 110.433 35.1008 110.623 35.2228 110.861C36.2301 112.982 37.2374 115.103 38.2447 117.15C39.8826 120.606 42.0036 124.889 43.3795 127.796V111.376C43.4043 111.078 43.5405 110.799 43.7613 110.596C43.982 110.392 44.271 110.28 44.571 110.28C44.871 110.28 45.16 110.392 45.3808 110.596C45.6015 110.799 45.7378 111.078 45.7626 111.376V132.964C45.766 133.235 45.6746 133.499 45.5041 133.71C45.3336 133.92 45.0948 134.065 44.829 134.119C44.5668 134.182 44.2909 134.153 44.0468 134.039C43.8027 133.924 43.6049 133.73 43.4859 133.488Z" fill="#FFDD00"/>
<path d="M44.5342 134.921C44.1757 134.917 43.8252 134.815 43.5207 134.626C43.2161 134.437 42.969 134.168 42.8062 133.848C42.2739 132.759 41.758 131.678 41.242 130.613L39.7597 127.551C38.6132 125.184 37.3029 122.432 36.1318 120.016V132.98C36.1318 133.501 35.9247 134.001 35.5561 134.37C35.1876 134.739 34.6876 134.946 34.1664 134.946C33.6451 134.946 33.1452 134.739 32.7766 134.37C32.408 134.001 32.2009 133.501 32.2009 132.98V111.376C32.1944 110.927 32.3459 110.49 32.6287 110.142C32.9116 109.793 33.308 109.555 33.7487 109.468C34.1736 109.382 34.6151 109.435 35.0076 109.619C35.4 109.804 35.7225 110.11 35.9271 110.492C36.9098 112.572 37.9335 114.726 38.9408 116.773C39.5468 118.043 40.2184 119.419 40.8817 120.794C41.4713 121.998 42.0528 123.202 42.6015 124.332V111.376C42.6015 110.855 42.8086 110.355 43.1772 109.987C43.5458 109.618 44.0457 109.411 44.567 109.411C45.0882 109.411 45.5882 109.618 45.9568 109.987C46.3254 110.355 46.5324 110.855 46.5324 111.376V132.964C46.5397 133.403 46.3955 133.832 46.1241 134.178C45.8527 134.524 45.4706 134.766 45.042 134.864C44.8895 134.903 44.7326 134.922 44.5752 134.921H44.5342ZM44.2148 133.119C44.2534 133.205 44.3193 133.276 44.4022 133.32C44.4852 133.365 44.5806 133.381 44.6734 133.365C44.7637 133.348 44.8447 133.298 44.9018 133.226C44.9589 133.154 44.9883 133.064 44.9846 132.972V111.376C44.9656 111.282 44.9144 111.197 44.8398 111.136C44.7651 111.075 44.6716 111.041 44.5752 111.041C44.4787 111.041 44.3852 111.075 44.3105 111.136C44.2359 111.197 44.1847 111.282 44.1657 111.376V131.162L42.6916 128.091C41.8235 126.273 40.6606 123.89 39.5059 121.499C38.8425 120.123 38.171 118.755 37.5568 117.486C36.5577 115.438 35.534 113.293 34.5513 111.213C34.5039 111.126 34.4297 111.056 34.3396 111.015C34.2496 110.974 34.1486 110.963 34.0517 110.983C33.9637 111.004 33.8855 111.054 33.8303 111.126C33.7751 111.198 33.7463 111.286 33.7487 111.376V132.964C33.7404 133.021 33.7456 133.078 33.7636 133.133C33.7817 133.187 33.8122 133.237 33.8528 133.277C33.8934 133.318 33.9428 133.348 33.9973 133.367C34.0517 133.385 34.1096 133.39 34.1664 133.381C34.2228 133.39 34.2806 133.385 34.3348 133.367C34.389 133.349 34.4381 133.318 34.4781 133.278C34.5181 133.237 34.5478 133.187 34.5648 133.132C34.5818 133.078 34.5856 133.02 34.5758 132.964V113.178L37.4176 119.083L41.152 126.855C41.6433 127.854 42.1347 128.877 42.6343 129.909C43.1338 130.941 43.6661 132.047 44.1902 133.119" fill="#FFDD00"/>
<path d="M52.4942 132.808V111.377C52.4859 111.218 52.5112 111.059 52.5684 110.91C52.6257 110.762 52.7136 110.627 52.8264 110.515C52.9393 110.403 53.0745 110.316 53.2233 110.26C53.3721 110.204 53.5311 110.18 53.6899 110.189C53.8458 110.188 54.0003 110.218 54.1444 110.277C54.2885 110.337 54.4193 110.424 54.5291 110.535C54.639 110.646 54.7256 110.777 54.784 110.921C54.8424 111.066 54.8714 111.221 54.8692 111.377V131.629H61.1177C61.4326 131.629 61.7347 131.754 61.9574 131.977C62.1801 132.2 62.3052 132.502 62.3052 132.816C62.3052 133.131 62.1801 133.433 61.9574 133.656C61.7347 133.879 61.4326 134.004 61.1177 134.004H53.6899C53.5311 134.013 53.3721 133.989 53.2233 133.933C53.0745 133.877 52.9393 133.79 52.8264 133.678C52.7136 133.566 52.6257 133.431 52.5684 133.283C52.5112 133.134 52.4859 132.975 52.4942 132.816" fill="#FFDD00"/>
<path d="M61.126 134.774H53.6899C53.4287 134.784 53.1681 134.74 52.9245 134.645C52.681 134.55 52.4596 134.406 52.2744 134.222C52.0891 134.037 51.9439 133.816 51.8479 133.573C51.7519 133.33 51.7071 133.07 51.7163 132.808V111.376C51.7071 111.115 51.7519 110.855 51.8479 110.612C51.9439 110.368 52.0891 110.148 52.2744 109.963C52.4596 109.779 52.681 109.634 52.9245 109.539C53.1681 109.444 53.4287 109.401 53.6899 109.411C53.9514 109.404 54.2115 109.45 54.4547 109.547C54.698 109.643 54.9195 109.787 55.1059 109.97C55.2924 110.153 55.44 110.372 55.54 110.614C55.6401 110.856 55.6904 111.115 55.6882 111.376V130.851H61.1587C61.68 130.851 62.1799 131.058 62.5485 131.427C62.9171 131.795 63.1242 132.295 63.1242 132.816C63.1242 133.338 62.9171 133.838 62.5485 134.206C62.1799 134.575 61.68 134.782 61.1587 134.782L61.126 134.774ZM53.7227 110.967C53.4361 110.967 53.305 111.098 53.305 111.376V132.816C53.2968 132.873 53.3019 132.931 53.32 132.986C53.338 133.04 53.3686 133.089 53.4091 133.13C53.4497 133.171 53.4992 133.201 53.5536 133.219C53.608 133.237 53.6659 133.242 53.7227 133.234H61.1587C61.2533 133.215 61.3384 133.164 61.3995 133.089C61.4607 133.015 61.4941 132.921 61.4941 132.825C61.4941 132.728 61.4607 132.635 61.3995 132.56C61.3384 132.485 61.2533 132.434 61.1587 132.415H54.0994V111.376C54.1017 111.322 54.0927 111.268 54.073 111.217C54.0532 111.166 54.0231 111.12 53.9846 111.082C53.9461 111.043 53.9001 111.013 53.8493 110.993C53.7986 110.974 53.7443 110.965 53.6899 110.967" fill="#FFDD00"/>
<path d="M67.1534 132.956V111.376C67.1512 111.219 67.1806 111.063 67.24 110.918C67.2994 110.772 67.3875 110.64 67.4991 110.529C67.6107 110.418 67.7435 110.331 67.8895 110.272C68.0355 110.214 68.1918 110.186 68.3491 110.189C68.5045 110.185 68.659 110.214 68.8029 110.273C68.9467 110.332 69.077 110.42 69.1853 110.531C69.2937 110.642 69.3779 110.775 69.4327 110.921C69.4875 111.066 69.5117 111.221 69.5038 111.376V132.964C69.5119 133.122 69.4869 133.281 69.4302 133.429C69.3735 133.577 69.2864 133.712 69.1746 133.825C69.0628 133.937 68.9287 134.025 68.7809 134.083C68.6331 134.14 68.4748 134.167 68.3163 134.16C68.1607 134.157 68.0071 134.125 67.8643 134.063C67.7215 134.001 67.5923 133.912 67.4842 133.8C67.3761 133.688 67.2913 133.556 67.2345 133.411C67.1777 133.266 67.1501 133.111 67.1534 132.956Z" fill="#FFDD00"/>
<path d="M68.3163 134.921C68.0569 134.924 67.7995 134.876 67.5591 134.778C67.3187 134.681 67.1002 134.536 66.9163 134.353C66.7325 134.17 66.5871 133.952 66.4886 133.712C66.3901 133.472 66.3405 133.215 66.3427 132.956V111.377C66.3405 111.117 66.3901 110.86 66.4886 110.62C66.5871 110.38 66.7325 110.162 66.9163 109.979C67.1002 109.796 67.3187 109.651 67.5591 109.554C67.7995 109.456 68.0569 109.408 68.3163 109.411C68.5769 109.402 68.8366 109.446 69.0792 109.542C69.3218 109.638 69.5421 109.782 69.7265 109.966C69.9108 110.151 70.0553 110.371 70.1508 110.614C70.2464 110.856 70.2909 111.116 70.2818 111.377V132.964C70.2909 133.224 70.2464 133.484 70.1508 133.727C70.0553 133.969 69.9108 134.19 69.7265 134.374C69.5421 134.558 69.3218 134.703 69.0792 134.798C68.8366 134.894 68.5769 134.939 68.3163 134.929V134.921ZM68.3163 110.967C68.2613 110.964 68.2061 110.972 68.1544 110.991C68.1027 111.01 68.0556 111.04 68.0162 111.079C67.9768 111.117 67.946 111.164 67.9257 111.215C67.9055 111.266 67.8962 111.321 67.8987 111.377V132.964C67.8963 133.019 67.9056 133.075 67.9257 133.126C67.9459 133.178 67.9766 133.225 68.0158 133.264C68.0551 133.304 68.1021 133.334 68.1538 133.354C68.2055 133.375 68.2609 133.384 68.3163 133.382C68.3728 133.39 68.4305 133.385 68.4847 133.367C68.5389 133.349 68.588 133.318 68.628 133.278C68.668 133.237 68.6978 133.187 68.7148 133.133C68.7318 133.078 68.7355 133.02 68.7258 132.964V111.377C68.7341 111.321 68.7292 111.264 68.7116 111.211C68.6939 111.157 68.664 111.108 68.6242 111.069C68.5844 111.029 68.5358 110.999 68.4823 110.981C68.4289 110.964 68.372 110.959 68.3163 110.967Z" fill="#FFDD00"/>
<path d="M86.8081 133.488C85.7681 131.367 84.769 129.246 83.7617 127.198C82.1238 123.734 80.0355 119.459 78.6596 116.593V132.972C78.6733 133.137 78.6526 133.303 78.599 133.459C78.5453 133.615 78.4598 133.759 78.3478 133.881C78.2358 134.002 78.0998 134.099 77.9484 134.166C77.797 134.232 77.6334 134.267 77.4681 134.267C77.3027 134.267 77.1392 134.232 76.9877 134.166C76.8363 134.099 76.7003 134.002 76.5883 133.881C76.4764 133.759 76.3908 133.615 76.3372 133.459C76.2835 133.303 76.2628 133.137 76.2765 132.972V111.376C76.2734 111.106 76.3651 110.844 76.5357 110.634C76.7063 110.425 76.9449 110.282 77.2101 110.23C77.4721 110.174 77.7451 110.206 77.9876 110.32C78.2301 110.433 78.4287 110.623 78.5532 110.861C79.5523 112.982 80.5596 115.103 81.5669 117.15C83.2048 120.606 85.3258 124.889 86.7017 127.796V111.376C86.7265 111.078 86.8628 110.799 87.0835 110.596C87.3042 110.392 87.5932 110.28 87.8932 110.28C88.1932 110.28 88.4823 110.392 88.703 110.596C88.9237 110.799 89.06 111.078 89.0848 111.376V132.964C89.0882 133.235 88.9968 133.499 88.8263 133.71C88.6558 133.92 88.417 134.065 88.1512 134.119C87.889 134.182 87.6132 134.153 87.3691 134.039C87.125 133.924 86.9271 133.73 86.8081 133.488Z" fill="#FFDD00"/>
<path d="M87.8154 134.921C87.4569 134.917 87.1064 134.815 86.8019 134.626C86.4973 134.437 86.2502 134.168 86.0874 133.848C85.5633 132.767 85.0392 131.686 84.5314 130.622L83.041 127.551C81.8944 125.184 80.5841 122.432 79.413 120.016V132.98C79.413 133.501 79.206 134.001 78.8374 134.37C78.4688 134.739 77.9689 134.946 77.4476 134.946C76.9263 134.946 76.4264 134.739 76.0578 134.37C75.6892 134.001 75.4821 133.501 75.4821 132.98V111.376C75.476 110.926 75.6286 110.488 75.9131 110.139C76.1976 109.791 76.5959 109.553 77.0381 109.468C77.4619 109.382 77.902 109.436 78.2931 109.62C78.6842 109.804 79.0052 110.11 79.2083 110.492V110.558C80.191 112.629 81.2065 114.775 82.2056 116.806C82.828 118.092 83.4996 119.484 84.1793 120.901L85.8663 124.389V111.376C85.8663 110.855 86.0734 110.355 86.442 109.987C86.8106 109.618 87.3105 109.411 87.8318 109.411C88.3531 109.411 88.853 109.618 89.2216 109.987C89.5902 110.355 89.7973 110.855 89.7973 111.376V132.964C89.7887 133.488 89.5743 133.988 89.2005 134.356C88.8267 134.723 88.3234 134.929 87.799 134.929L87.8154 134.921ZM87.4469 133.128C87.4839 133.213 87.5483 133.283 87.6299 133.328C87.7115 133.372 87.8056 133.388 87.8973 133.373H87.9382C88.0285 133.356 88.1095 133.306 88.1666 133.234C88.2237 133.162 88.2531 133.072 88.2495 132.98V111.376C88.2581 111.32 88.2532 111.262 88.2351 111.208C88.217 111.154 88.1863 111.105 88.1455 111.065C88.1047 111.025 88.055 110.995 88.0004 110.978C87.9459 110.961 87.8881 110.957 87.8318 110.967C87.7761 110.959 87.7192 110.964 87.6658 110.981C87.6123 110.999 87.5637 111.029 87.5239 111.069C87.4841 111.108 87.4542 111.157 87.4365 111.21C87.4189 111.264 87.414 111.321 87.4223 111.376V131.154L85.9892 128.083C85.1211 126.281 83.9746 123.914 82.8198 121.531L80.8544 117.437C79.8471 115.397 78.8316 113.252 77.8489 111.172C77.804 111.084 77.7314 111.014 77.6424 110.973C77.5535 110.931 77.4532 110.921 77.3575 110.942C77.3036 110.944 77.2507 110.957 77.2021 110.981C77.1535 111.004 77.1102 111.037 77.0748 111.078C77.0395 111.118 77.0129 111.166 76.9967 111.217C76.9806 111.269 76.9751 111.323 76.9808 111.376V132.964C76.9686 133.024 76.97 133.087 76.985 133.147C76.9999 133.207 77.028 133.263 77.0671 133.311C77.1063 133.359 77.1556 133.397 77.2115 133.424C77.2674 133.45 77.3284 133.464 77.3903 133.464C77.4521 133.464 77.5131 133.45 77.569 133.424C77.6249 133.397 77.6742 133.359 77.7134 133.311C77.7526 133.263 77.7806 133.207 77.7955 133.147C77.8105 133.087 77.8119 133.024 77.7997 132.964V113.178L80.6578 119.14C81.8371 121.597 83.1966 124.43 84.3677 126.855C84.859 127.854 85.3586 128.885 85.8581 129.926C86.3577 130.966 86.8818 132.055 87.4141 133.119" fill="#FFDD00"/>
<path d="M96.9712 110.328H104.415C104.714 110.353 104.993 110.489 105.196 110.71C105.399 110.931 105.512 111.22 105.512 111.52C105.512 111.82 105.399 112.109 105.196 112.33C104.993 112.55 104.714 112.687 104.415 112.711H98.1587V120.598H103.67C103.969 120.623 104.248 120.759 104.451 120.98C104.654 121.2 104.767 121.489 104.767 121.789C104.767 122.089 104.654 122.378 104.451 122.599C104.248 122.82 103.969 122.956 103.67 122.981H98.1587V131.621H104.415C104.73 131.621 105.032 131.746 105.255 131.969C105.478 132.191 105.603 132.493 105.603 132.808C105.603 133.123 105.478 133.425 105.255 133.648C105.032 133.871 104.73 133.996 104.415 133.996H96.9712C96.8124 134.005 96.6534 133.981 96.5047 133.925C96.3559 133.869 96.2206 133.782 96.1078 133.669C95.9949 133.557 95.907 133.423 95.8497 133.274C95.7925 133.126 95.7672 132.967 95.7755 132.808V111.516C95.7673 111.356 95.7926 111.197 95.8498 111.049C95.9069 110.9 95.9947 110.765 96.1074 110.652C96.2202 110.539 96.3553 110.451 96.5041 110.394C96.6529 110.337 96.812 110.312 96.9712 110.32" fill="#FFDD00"/>
<path d="M104.415 134.774H96.9712C96.7106 134.783 96.451 134.738 96.2084 134.643C95.9658 134.547 95.7454 134.403 95.5611 134.218C95.3767 134.034 95.2322 133.814 95.1367 133.571C95.0412 133.329 94.9966 133.069 95.0057 132.808V111.516C94.9954 111.254 95.0392 110.994 95.1342 110.75C95.2292 110.507 95.3735 110.285 95.558 110.1C95.7425 109.915 95.9632 109.77 96.2064 109.674C96.4495 109.578 96.7099 109.533 96.9712 109.542H104.415C104.916 109.574 105.385 109.796 105.728 110.162C106.071 110.528 106.262 111.01 106.262 111.512C106.262 112.013 106.071 112.496 105.728 112.862C105.385 113.227 104.916 113.449 104.415 113.481H98.9367V119.82H103.67C104.191 119.82 104.691 120.027 105.06 120.396C105.429 120.764 105.636 121.264 105.636 121.785C105.636 122.307 105.429 122.807 105.06 123.175C104.691 123.544 104.191 123.751 103.67 123.751H98.9367V130.835H104.415C104.937 130.835 105.437 131.042 105.805 131.41C106.174 131.779 106.381 132.279 106.381 132.8C106.381 133.321 106.174 133.821 105.805 134.19C105.437 134.559 104.937 134.766 104.415 134.766V134.774ZM96.9712 111.098C96.9145 111.09 96.8566 111.095 96.8021 111.113C96.7477 111.131 96.6982 111.162 96.6577 111.202C96.6171 111.243 96.5866 111.292 96.5685 111.347C96.5504 111.401 96.5453 111.459 96.5536 111.516V132.808C96.5453 132.865 96.5504 132.923 96.5685 132.977C96.5866 133.032 96.6171 133.081 96.6577 133.122C96.6982 133.162 96.7477 133.193 96.8021 133.211C96.8566 133.229 96.9145 133.234 96.9712 133.226H104.415C104.51 133.207 104.595 133.156 104.656 133.081C104.717 133.006 104.751 132.913 104.751 132.816C104.751 132.72 104.717 132.627 104.656 132.552C104.595 132.477 104.51 132.426 104.415 132.407H97.3807V122.211H103.67C103.765 122.192 103.85 122.141 103.911 122.066C103.972 121.992 104.006 121.898 104.006 121.802C104.006 121.705 103.972 121.612 103.911 121.537C103.85 121.462 103.765 121.411 103.67 121.392H97.3807V111.933H104.415C104.471 111.942 104.528 111.937 104.581 111.919C104.635 111.902 104.683 111.872 104.723 111.832C104.763 111.792 104.793 111.743 104.811 111.69C104.828 111.636 104.833 111.58 104.825 111.524C104.825 111.237 104.694 111.106 104.415 111.106L96.9712 111.098Z" fill="#FFDD00"/>
</g>
<defs>
<clipPath id="clip0_43:1217">
<rect width="120" height="166.123" fill="white"/>
</clipPath>
</defs>
</svg>
